<svg width="20" height="21" viewBox="0 0 20 21" fill="none" xmlns="http://www.w3.org/2000/svg">
<path d="M5.83334 7.16667C4.94928 7.16667 4.10143 7.51786 3.47631 8.14298C2.85119 8.7681 2.5 9.61594 2.5 10.5C2.5 11.3841 2.85119 12.2319 3.47631 12.857C4.10143 13.4821 4.94928 13.8333 5.83334 13.8333H7.5C7.72102 13.8333 7.93298 13.9211 8.08926 14.0774C8.24554 14.2337 8.33333 14.4457 8.33333 14.6667C8.33333 14.8877 8.24554 15.0996 8.08926 15.2559C7.93298 15.4122 7.72102 15.5 7.5 15.5H5.83334C4.50725 15.5 3.23548 14.9732 2.2978 14.0355C1.36012 13.0979 0.833336 11.8261 0.833336 10.5C0.833336 9.17392 1.36012 7.90215 2.2978 6.96447C3.23548 6.02678 4.50725 5.5 5.83334 5.5H7.5C7.72102 5.5 7.93298 5.5878 8.08926 5.74408C8.24554 5.90036 8.33333 6.11232 8.33333 6.33333C8.33333 6.55435 8.24554 6.76631 8.08926 6.92259C7.93298 7.07887 7.72102 7.16667 7.5 7.16667H5.83334ZM11.6667 6.33333C11.6667 6.11232 11.7545 5.90036 11.9107 5.74408C12.067 5.5878 12.279 5.5 12.5 5.5H14.1667C15.4928 5.5 16.7645 6.02678 17.7022 6.96447C18.6399 7.90215 19.1667 9.17392 19.1667 10.5C19.1667 11.8261 18.6399 13.0979 17.7022 14.0355C16.7645 14.9732 15.4928 15.5 14.1667 15.5H12.5C12.279 15.5 12.067 15.4122 11.9107 15.2559C11.7545 15.0996 11.6667 14.8877 11.6667 14.6667C11.6667 14.4457 11.7545 14.2337 11.9107 14.0774C12.067 13.9211 12.279 13.8333 12.5 13.8333H14.1667C15.0507 13.8333 15.8986 13.4821 16.5237 12.857C17.1488 12.2319 17.5 11.3841 17.5 10.5C17.5 9.61594 17.1488 8.7681 16.5237 8.14298C15.8986 7.51786 15.0507 7.16667 14.1667 7.16667H12.5C12.279 7.16667 12.067 7.07887 11.9107 6.92259C11.7545 6.76631 11.6667 6.55435 11.6667 6.33333ZM5.83334 10.5C5.83334 10.279 5.92113 10.067 6.07741 9.91074C6.23369 9.75446 6.44565 9.66667 6.66667 9.66667H13.3333C13.5543 9.66667 13.7663 9.75446 13.9226 9.91074C14.0789 10.067 14.1667 10.279 14.1667 10.5C14.1667 10.721 14.0789 10.933 13.9226 11.0893C13.7663 11.2455 13.5543 11.3333 13.3333 11.3333H6.66667C6.44565 11.3333 6.23369 11.2455 6.07741 11.0893C5.92113 10.933 5.83334 10.721 5.83334 10.5Z" fill="white"/>
</svg>
