<svg width="18" height="18" viewBox="0 0 18 18" fill="none" xmlns="http://www.w3.org/2000/svg">
<g clip-path="url(#clip0_3935_22488)">
<path d="M18 3.41888C17.3306 3.7125 16.6174 3.90713 15.8738 4.00163C16.6388 3.54488 17.2226 2.82713 17.4971 1.962C16.7839 2.38725 15.9964 2.68763 15.1571 2.85525C14.4799 2.13413 13.5146 1.6875 12.4616 1.6875C10.4186 1.6875 8.77389 3.34575 8.77389 5.37863C8.77389 5.67113 8.79864 5.95238 8.85939 6.22013C5.79151 6.0705 3.07689 4.60013 1.25326 2.36025C0.934888 2.91263 0.748138 3.54488 0.748138 4.2255C0.748138 5.5035 1.40626 6.63638 2.38726 7.29225C1.79439 7.281 1.21276 7.10888 0.720013 6.83775C0.720013 6.849 0.720013 6.86363 0.720013 6.87825C0.720013 8.6715 1.99914 10.161 3.67651 10.5041C3.37614 10.5863 3.04876 10.6256 2.70901 10.6256C2.47276 10.6256 2.23426 10.6121 2.01039 10.5626C2.48851 12.024 3.84526 13.0984 5.45851 13.1333C4.20301 14.1154 2.60889 14.7071 0.883138 14.7071C0.580513 14.7071 0.290263 14.6936 1.33514e-05 14.6565C1.63464 15.7106 3.57189 16.3125 5.66101 16.3125C12.4515 16.3125 16.164 10.6875 16.164 5.81175C16.164 5.64863 16.1584 5.49113 16.1505 5.33475C16.8829 4.815 17.4983 4.16588 18 3.41888Z" fill="white"/>
</g>
<defs>
<clipPath id="clip0_3935_22488">
<rect width="18" height="18" fill="white"/>
</clipPath>
</defs>
</svg>
