<svg width="60" height="60" viewBox="0 0 60 60" fill="none" xmlns="http://www.w3.org/2000/svg">
<g clip-path="url(#clip0_14882_480)">
<path d="M20 30.0002C28.2725 30.0002 35 23.2727 35 15.0002C35 6.72774 28.2725 0.000244141 20 0.000244141C11.7275 0.000244141 5 6.72774 5 15.0002C5 23.2727 11.7275 30.0002 20 30.0002ZM56.74 47.8352L54.305 46.4302C54.72 45.1877 55 43.8827 55 42.5002C55 41.1177 54.7225 39.8127 54.305 38.5702L56.74 37.1652C57.935 36.4752 58.345 34.9452 57.655 33.7502C56.9625 32.5527 55.435 32.1427 54.24 32.8352L51.8075 34.2402C50.045 32.2552 47.6975 30.8027 45 30.2552V27.5027C45 26.1227 43.88 25.0027 42.5 25.0027C41.12 25.0027 40 26.1227 40 27.5027V30.2552C37.3025 30.8052 34.955 32.2577 33.1925 34.2402L30.76 32.8352C29.5575 32.1427 28.035 32.5527 27.345 33.7502C26.655 34.9477 27.065 36.4752 28.26 37.1652L30.695 38.5702C30.28 39.8127 30 41.1177 30 42.5002C30 43.8827 30.2775 45.1877 30.695 46.4302L28.26 47.8352C27.065 48.5252 26.655 50.0552 27.345 51.2502C27.81 52.0527 28.6475 52.5002 29.5125 52.5002C29.935 52.5002 30.365 52.3927 30.76 52.1652L33.1925 50.7602C34.955 52.7452 37.3025 54.1977 40 54.7452V57.4977C40 58.8777 41.12 59.9977 42.5 59.9977C43.88 59.9977 45 58.8777 45 57.4977V54.7452C47.6975 54.1952 50.045 52.7427 51.8075 50.7602L54.24 52.1652C54.635 52.3927 55.065 52.5002 55.4875 52.5002C56.3525 52.5002 57.1925 52.0527 57.655 51.2502C58.345 50.0527 57.935 48.5252 56.74 47.8352ZM42.5 46.2502C40.4325 46.2502 38.75 44.5677 38.75 42.5002C38.75 40.4327 40.4325 38.7502 42.5 38.7502C44.5675 38.7502 46.25 40.4327 46.25 42.5002C46.25 44.5677 44.5675 46.2502 42.5 46.2502ZM21.25 42.5002C21.25 41.1277 21.3875 39.7352 21.6625 38.3552C21.8275 37.5227 21.5575 36.6652 20.95 36.0752C20.3425 35.4852 19.4775 35.2452 18.65 35.4327C8.0175 37.8727 0 47.3602 0 57.5002C0 58.8802 1.12 60.0002 2.5 60.0002H24.0925C25.0575 60.0002 25.9375 59.4452 26.35 58.5727C26.765 57.7002 26.64 56.6677 26.03 55.9202C22.9475 52.1427 21.25 47.3777 21.25 42.5002Z" fill="#FCDABF"/>
</g>
<defs>
<clipPath id="clip0_14882_480">
<rect width="60" height="60" fill="white"/>
</clipPath>
</defs>
</svg>
