<svg width="60" height="60" viewBox="0 0 60 60" fill="none" xmlns="http://www.w3.org/2000/svg">
<g clip-path="url(#clip0_14882_478)">
<path d="M57.99 47.8347L55.6075 46.4597C56.025 45.2147 56.25 43.8847 56.25 42.5022C56.25 41.1197 56.0225 39.7872 55.6075 38.5447L57.99 37.1697C59.1875 36.4797 59.5975 34.9497 58.905 33.7547C58.2125 32.5572 56.68 32.1497 55.49 32.8397L53.1 34.2197C51.335 32.2322 48.95 30.8072 46.25 30.2572V27.5047C46.25 26.1247 45.1325 25.0047 43.75 25.0047C42.3675 25.0047 41.25 26.1247 41.25 27.5047V30.2572C38.55 30.8072 36.1625 32.2322 34.4 34.2197L32.01 32.8397C30.81 32.1497 29.285 32.5597 28.595 33.7547C27.905 34.9497 28.315 36.4797 29.51 37.1697L31.8925 38.5447C31.475 39.7897 31.25 41.1197 31.25 42.5022C31.25 43.8847 31.4775 45.2172 31.8925 46.4597L29.51 47.8347C28.315 48.5247 27.905 50.0547 28.595 51.2497C29.06 52.0522 29.8975 52.4997 30.7625 52.4997C31.185 52.4997 31.615 52.3922 32.01 52.1647L34.4 50.7847C36.165 52.7722 38.55 54.1972 41.25 54.7472V57.4997C41.25 58.8797 42.3675 59.9997 43.75 59.9997C45.1325 59.9997 46.25 58.8797 46.25 57.4997V54.7472C48.95 54.1972 51.3375 52.7722 53.1 50.7847L55.49 52.1647C55.8825 52.3922 56.3125 52.4997 56.7375 52.4997C57.6025 52.4997 58.4425 52.0522 58.905 51.2497C59.595 50.0522 59.185 48.5247 57.99 47.8347ZM43.75 46.2497C41.6825 46.2497 40 44.5672 40 42.4997C40 40.4322 41.6825 38.7497 43.75 38.7497C45.8175 38.7497 47.5 40.4322 47.5 42.4997C47.5 44.5672 45.8175 46.2497 43.75 46.2497ZM20.0025 44.9997H11.41C10.515 42.8072 9.09502 40.7447 7.17252 38.9572C1.80002 33.9547 -0.744977 26.8822 0.190023 19.5547C1.47752 9.45472 9.76252 1.29222 19.8925 0.147217C26.31 -0.575283 32.7175 1.45222 37.4875 5.71472C41.96 9.70972 44.645 15.3297 44.97 21.2847C44.5675 21.2622 44.16 21.2497 43.75 21.2497C35.6325 21.2497 28.58 25.7997 25.0025 32.4897V27.0397C27.905 26.0047 30.0025 23.2547 30.0025 19.9997C30.0025 18.6197 28.885 17.4997 27.5025 17.4997C26.12 17.4997 25.0025 18.6197 25.0025 19.9997C25.0025 21.3797 23.8825 22.4997 22.5025 22.4997C21.1225 22.4997 20.0025 21.3772 20.0025 19.9997C20.0025 18.6222 18.885 17.4997 17.5025 17.4997C16.12 17.4997 15.0025 18.6197 15.0025 19.9997C15.0025 23.2547 17.1 26.0047 20.0025 27.0397V44.9997ZM29.1175 57.9097C27.525 59.2147 25.49 59.9997 23.275 59.9997H21.7275C16.64 59.9997 12.5025 55.8622 12.5025 50.7747V49.9997H23.8625C25.005 53.0247 26.815 55.7222 29.1175 57.9097Z" fill="#FCDABF"/>
</g>
<defs>
<clipPath id="clip0_14882_478">
<rect width="60" height="60" fill="white"/>
</clipPath>
</defs>
</svg>
