<svg width="60" height="60" viewBox="0 0 60 60" fill="none" xmlns="http://www.w3.org/2000/svg">
<g clip-path="url(#clip0_14882_482)">
<path d="M27.5 11.4L22.8 6.825L29.45 0H35V24.4C33.2 25.2 31.55 26.25 30.075 27.5H27.5V11.4ZM22.5 43.75C22.5 39.85 23.575 36.2 25.4 33.075C20.85 34.5 17.5 38.725 17.5 43.75V48.75C17.5 54.95 22.55 60 28.75 60C29.15 60 29.55 59.925 29.95 59.875C25.4 55.975 22.5 50.2 22.5 43.75ZM60 43.75C60 52.725 52.725 60 43.75 60C34.775 60 27.5 52.725 27.5 43.75C27.5 34.775 34.775 27.5 43.75 27.5C52.725 27.5 60 34.775 60 43.75ZM55.05 41.3L49.75 36L41.4 44.35L37.35 40L31.95 45.2L37.025 50.625C38.15 51.825 39.65 52.475 41.275 52.5H41.375C42.975 52.5 44.475 51.875 45.6 50.75L55.05 41.275V41.3ZM0 16.25V11.25C0 5.05 5.05 0 11.25 0C17.45 0 22.5 5.05 22.5 11.25V16.25C22.5 22.45 17.45 27.5 11.25 27.5C5.05 27.5 0 22.45 0 16.25ZM7.5 16.25C7.5 18.325 9.175 20 11.25 20C13.325 20 15 18.325 15 16.25V11.25C15 9.175 13.325 7.5 11.25 7.5C9.175 7.5 7.5 9.175 7.5 11.25V16.25ZM6.95 32.5L0.3 39.3L5 43.875V59.975H12.5V32.5H6.95Z" fill="#FCDABF"/>
</g>
<defs>
<clipPath id="clip0_14882_482">
<rect width="60" height="60" fill="white"/>
</clipPath>
</defs>
</svg>
