<svg width="74" height="68" viewBox="0 0 74 68" fill="none" xmlns="http://www.w3.org/2000/svg">
<g clip-path="url(#clip0_14878_4425)">
<path d="M24.3993 59.8978C24.0064 59.5907 23.5696 59.3442 23.1035 59.1665C22.6673 59.0132 22.2102 58.9272 21.748 58.9114C20.7466 58.9002 19.7483 59.026 18.7812 59.2857C17.7923 59.5321 16.846 59.8209 16.147 60.0592C15.4479 60.297 14.9875 60.4757 14.9875 60.4757C14.9875 60.4757 15.4393 60.7309 16.1555 61.0369C17.0522 61.4249 17.9903 61.7101 18.9517 61.8868C20.0383 62.0997 21.1585 62.0737 22.2339 61.8104C22.7295 61.7045 23.1893 61.4728 23.5687 61.1377C23.9481 60.8027 24.2342 60.3754 24.3993 59.8978Z" fill="#FCDABF"/>
<path d="M21.381 55.528C21.7488 56.411 22.3355 57.1861 23.086 57.7809C23.4417 58.0569 23.8556 58.2489 24.2966 58.342C24.7511 58.4347 25.223 58.3904 25.6521 58.2142C25.6816 57.3134 25.438 56.4248 24.953 55.6645C24.4898 54.9582 23.9139 54.3319 23.248 53.8114C22.6695 53.347 22.063 52.9182 21.4321 52.5276C20.9291 52.2129 20.5796 52.0347 20.5796 52.0347C20.5796 52.0347 20.5796 52.1452 20.5796 52.3408C20.5796 52.5363 20.6307 52.7996 20.6904 53.1397C20.8221 53.9611 21.054 54.7632 21.381 55.528Z" fill="#FCDABF"/>
<path d="M14.2709 57.8237C14.7526 57.8181 15.2267 57.7025 15.6567 57.486C16.0868 57.2691 16.4613 56.9575 16.7517 56.574C16.5249 56.1738 16.2191 55.8234 15.8528 55.5443C15.4865 55.2653 15.0672 55.0631 14.6204 54.9501C13.6556 54.6929 12.6609 54.5641 11.6621 54.5676C10.6476 54.5676 9.63313 54.5676 8.87443 54.5676H7.60415C7.60415 54.5676 7.69795 54.6781 7.86844 54.8482C8.03893 55.0183 8.30323 55.248 8.6272 55.5112C9.40683 56.1519 10.2665 56.6891 11.1847 57.1092C12.1442 57.5823 13.2006 57.8267 14.2709 57.8237Z" fill="#FCDABF"/>
<path d="M16.1979 53.9387C16.4623 54.3013 16.8122 54.5936 17.2166 54.7891C17.621 54.9852 18.0676 55.0784 18.5168 55.0611C18.8716 54.2071 18.8928 53.2518 18.5765 52.3835C18.2737 51.5856 17.848 50.8401 17.3147 50.1735C16.8288 49.5105 16.3344 48.9406 15.9763 48.5414C15.7973 48.3285 15.6438 48.1671 15.5415 48.0566L15.3796 47.8865C15.3796 47.8865 15.3796 47.9889 15.2943 48.1671C15.23 48.4222 15.1788 48.6804 15.1408 48.9406C15.0153 49.7549 15.0153 50.5834 15.1408 51.3972C15.2744 52.3194 15.6379 53.1932 16.1979 53.9387Z" fill="#FCDABF"/>
<path d="M4.04075 46.858C3.34168 46.637 2.88133 46.5095 2.88133 46.5095C2.88133 46.5095 2.92396 46.6285 3.01776 46.824C3.11151 47.0196 3.25643 47.2831 3.43548 47.6061C3.61447 47.9293 3.83614 48.3031 4.09193 48.6942C4.2198 48.8897 4.35617 49.0852 4.5011 49.2889L4.61196 49.4422L4.75688 49.6291L5.05524 50.0034C5.79169 50.9287 6.77155 51.6324 7.8856 52.0347C8.34696 52.2043 8.84346 52.2567 9.33019 52.187C9.81696 52.1172 10.2786 51.9278 10.6733 51.6355C10.4457 50.727 9.89803 49.9306 9.13026 49.3913C8.95127 49.2467 8.74666 49.1107 8.54205 48.9661L7.89415 48.5582L7.20358 48.1584C6.99047 48.0398 6.7688 47.9293 6.54713 47.8269C5.7344 47.4484 4.89707 47.1247 4.04075 46.858Z" fill="#FCDABF"/>
<path d="M10.9125 48.6091C11.0283 49.0389 11.258 49.43 11.5775 49.7411C11.897 50.0522 12.2945 50.2717 12.7284 50.3771C13.291 49.6652 13.6106 48.7924 13.6406 47.8865C13.6631 47.1324 13.6117 46.3779 13.4871 45.6339C13.4358 45.2572 13.356 44.8849 13.2484 44.5203C13.1376 44.1462 13.0268 43.8062 12.9159 43.5257C12.8051 43.2452 12.7113 43.0072 12.6432 42.8457L12.5494 42.5907L12.3703 42.8457C12.2595 43.0157 12.1231 43.2537 11.9696 43.5512C11.5735 44.3073 11.2564 45.102 11.0233 45.9228C10.9637 46.1524 10.904 46.3904 10.8528 46.6284C10.8085 46.8531 10.7772 47.0801 10.759 47.3084C10.7378 47.5346 10.7378 47.7622 10.759 47.9883C10.7906 48.1997 10.842 48.4074 10.9125 48.6091Z" fill="#FCDABF"/>
<path d="M2.96652 43.3725C3.1333 43.5657 3.3158 43.7448 3.51216 43.908C3.69676 44.0673 3.89342 44.2123 4.10038 44.3415C4.48698 44.623 4.93246 44.8136 5.40345 44.899C5.87443 44.9844 6.35866 44.9624 6.81992 44.8346C6.90064 44.3809 6.87141 43.9146 6.73468 43.4745C6.67148 43.2661 6.58272 43.0662 6.47039 42.8795C6.35922 42.6855 6.2368 42.4982 6.10379 42.3184C5.49277 41.5528 4.75459 40.8972 3.92133 40.3803C3.18763 39.8639 2.4248 39.39 1.63661 38.9607L0.562442 38.3827C0.562442 38.3827 0.562442 38.5102 0.630628 38.7227C0.698865 38.9353 0.775555 39.2328 0.903423 39.5728C1.17724 40.468 1.56395 41.3249 2.05434 42.1229C2.32688 42.5614 2.6318 42.9791 2.96652 43.3725Z" fill="#FCDABF"/>
<path d="M8.30338 43.0156C8.4947 43.4185 8.78868 43.7644 9.15589 44.0187C9.97514 43.5609 10.5858 42.8059 10.8609 41.9106C10.9289 41.7018 10.983 41.4888 11.0229 41.273L11.0741 40.95C11.0741 40.848 11.0741 40.7375 11.1252 40.627C11.176 40.1926 11.1931 39.7549 11.1764 39.3179C11.1478 38.5778 11.0767 37.8398 10.9632 37.1078C10.9121 36.8188 10.8609 36.5808 10.8268 36.4193C10.7927 36.2578 10.7756 36.1643 10.7756 36.1643L10.5625 36.3768C10.3726 36.5651 10.1933 36.7637 10.0254 36.9718C9.49656 37.6178 9.03922 38.3189 8.66142 39.0629C8.24513 39.9016 8.02091 40.8219 8.00497 41.7575C8.00706 41.9784 8.03568 42.1981 8.09022 42.4121C8.13839 42.6206 8.20989 42.8231 8.30338 43.0156Z" fill="#FCDABF"/>
<path d="M1.24466 35.2972C1.36403 35.5228 1.50086 35.7388 1.65388 35.9432C1.80813 36.1418 1.97617 36.3293 2.15685 36.5043C2.48316 36.8469 2.88215 37.1126 3.32467 37.2817C3.76719 37.4508 4.242 37.5192 4.71441 37.4818C4.88358 37.0555 4.94509 36.5943 4.89346 36.1388C4.86733 35.9218 4.8188 35.7082 4.74853 35.5012C4.69389 35.2864 4.6226 35.076 4.53536 34.8721C4.33004 34.442 4.07543 34.0369 3.77666 33.6651L3.31626 33.0871C3.16283 32.8916 2.99234 32.7046 2.83036 32.5176C2.15685 31.7865 1.42371 31.1065 0.903681 30.6049C0.383654 30.1034 0 29.7719 0 29.7719C0 29.7719 0 30.2819 0 31.047C0.0397709 31.4863 0.102355 31.9232 0.18755 32.356C0.238727 32.5941 0.289854 32.8406 0.349536 33.0871C0.404737 33.3406 0.475928 33.5905 0.56265 33.8351C0.755903 34.3376 0.983783 34.8261 1.24466 35.2972Z" fill="#FCDABF"/>
<path d="M7.16974 36.9293C8.04296 36.6373 8.77555 36.0311 9.22433 35.2292C9.33341 35.0443 9.42746 34.851 9.50563 34.6511C9.6032 34.4554 9.6886 34.2538 9.76142 34.0477C9.8956 33.6511 9.99821 33.2446 10.0683 32.8321C10.145 32.4325 10.2303 32.0415 10.2729 31.6845C10.2729 31.4975 10.2729 31.3275 10.3241 31.166C10.3752 31.0044 10.3241 30.8515 10.3241 30.7069C10.371 30.3972 10.3995 30.085 10.4093 29.7719C10.4093 29.7719 10.0342 29.9844 9.49712 30.3669L9.06234 30.6899C8.90891 30.8174 8.75543 30.945 8.602 31.0895C8.26906 31.3866 7.95848 31.7076 7.67275 32.05C7.52783 32.2285 7.3829 32.4155 7.24648 32.6111L7.05893 32.9086L6.89694 33.2231C6.69386 33.6299 6.54481 34.0614 6.45366 34.5067C6.40615 34.7216 6.38328 34.9412 6.38542 35.1612C6.39805 35.3738 6.43232 35.5846 6.48772 35.7902C6.61029 36.2232 6.84561 36.6162 7.16974 36.9293Z" fill="#FCDABF"/>
<path d="M3.62361 24.6716C3.39344 24.2296 3.1462 23.8216 2.90753 23.4051L2.25108 22.3425C1.86742 21.722 1.58612 21.3225 1.58612 21.3225C1.58612 21.3225 1.4412 21.807 1.28771 22.555C1.23659 22.9375 1.1769 23.4051 1.14279 23.8726C1.14279 24.1106 1.14279 24.3656 1.14279 24.6207C1.14279 24.8756 1.14279 25.1392 1.14279 25.4027C1.18434 25.9302 1.26989 26.4534 1.39857 26.9668C1.5327 27.4592 1.73344 27.931 1.99534 28.3694C2.23071 28.7788 2.55784 29.1285 2.95127 29.391C3.34465 29.6535 3.79359 29.8217 4.263 29.8824C4.39066 29.689 4.49378 29.4806 4.56991 29.2619C4.65047 29.0564 4.70766 28.8425 4.7404 28.6243C4.80584 28.1883 4.78557 27.7437 4.68077 27.3153C4.58315 26.8558 4.44332 26.4062 4.263 25.9722C4.07545 25.5217 3.84528 25.0627 3.62361 24.6716Z" fill="#FCDABF"/>
<path d="M9.13928 28.5138C9.44095 28.219 9.70443 27.8878 9.9236 27.5278C10.163 27.1902 10.3714 26.8317 10.5459 26.4567C10.6397 26.2782 10.7079 26.0997 10.7932 25.9297L11.0148 25.4197C11.1513 25.0881 11.2536 24.7821 11.3473 24.5186C11.5434 24.0001 11.6372 23.6686 11.6372 23.6686C11.2819 23.7603 10.9319 23.8709 10.5886 24.0001C9.82109 24.2877 9.09569 24.6765 8.4317 25.1562C8.23774 25.2885 8.05263 25.4333 7.87756 25.5897C7.70712 25.7455 7.54493 25.91 7.39165 26.0827C7.08571 26.4245 6.83022 26.808 6.6329 27.2217C6.45833 27.6123 6.3683 28.0352 6.36861 28.4628C6.3628 28.6757 6.39157 28.8882 6.45385 29.0918C6.52397 29.31 6.62139 29.5185 6.74371 29.7124C7.65844 29.6051 8.50631 29.1809 9.13928 28.5138Z" fill="#FCDABF"/>
<path d="M6.14639 21.9346C6.2795 21.7616 6.39118 21.5732 6.47892 21.3735C6.56309 21.1768 6.62598 20.9716 6.66647 20.7615C6.66647 20.549 6.7261 20.328 6.75171 20.1069C6.77926 19.6437 6.75349 19.1788 6.67497 18.7214C6.61004 18.2317 6.51609 17.7463 6.39362 17.2678C6.14639 16.2987 5.88215 15.3892 5.63492 14.7176C5.38769 14.0461 5.2342 13.5361 5.2342 13.5361C5.2342 13.5361 5.16602 13.6466 5.06371 13.8336C4.96141 14.0206 4.82499 14.3096 4.66305 14.6837C4.277 15.5377 3.99097 16.4334 3.8105 17.3528C3.72586 17.8616 3.67743 18.3757 3.66557 18.8914C3.66852 19.1474 3.68843 19.403 3.72525 19.6564C3.76522 19.9002 3.8193 20.1415 3.88724 20.379C4.01108 20.8318 4.23219 21.2523 4.53513 21.6115C4.84505 21.9862 5.24347 22.2783 5.6946 22.4616C5.86855 22.3072 6.02056 22.1299 6.14639 21.9346Z" fill="#FCDABF"/>
<path d="M14.2287 18.2454C14.3224 18.1093 14.365 18.0329 14.365 18.0329H14.0667C13.8621 18.0329 13.5978 18.0329 13.2738 18.1009C12.9499 18.1689 12.5662 18.2029 12.157 18.2964C11.9524 18.3389 11.7393 18.3984 11.5262 18.4579C11.3131 18.5174 11.1084 18.6024 10.8953 18.6874C10.4592 18.8524 10.0419 19.0632 9.65062 19.3164C9.27694 19.5547 8.93591 19.8405 8.63612 20.1665C8.49822 20.3302 8.38085 20.51 8.28659 20.702C8.19421 20.8901 8.12002 21.0865 8.06497 21.2885C8.00677 21.4931 7.97809 21.7049 7.97967 21.9176C7.99831 22.1453 8.04119 22.3704 8.10759 22.5891C8.57211 22.6792 9.04972 22.6792 9.51424 22.5891C9.93823 22.4922 10.346 22.3347 10.7248 22.1216C10.9038 22.0111 11.0829 21.9006 11.2534 21.7731L11.492 21.5776L11.7393 21.3736C12.0474 21.1151 12.3326 20.8307 12.5918 20.5235C12.8477 20.255 13.0869 19.9711 13.3079 19.6734L13.4614 19.4524L13.6063 19.2569C13.7086 19.1209 13.7939 18.9934 13.8706 18.8829C13.9473 18.7724 14.1519 18.3899 14.2287 18.2454Z" fill="#FCDABF"/>
<path d="M8.92581 15.6781C9.32871 15.4819 9.67708 15.19 9.9403 14.8281C10.2041 14.4834 10.3982 14.0907 10.5115 13.672C10.9753 11.8864 10.8526 9.98913 10.6905 8.17223C10.6138 7.46669 10.5371 6.99066 10.5371 6.99066C10.1921 7.25817 9.93107 7.5687 9.67601 7.92571C9.41752 8.26333 9.17844 8.61521 8.95988 8.97976C8.70531 9.40441 8.47753 9.84444 8.27786 10.2973C8.07524 10.7703 7.91269 11.2594 7.79196 11.7595C7.69087 12.2456 7.65075 12.7425 7.67259 13.2385C7.68451 13.7129 7.80336 14.1785 8.0203 14.6008C8.23723 15.0231 8.54674 15.3913 8.92581 15.6781Z" fill="#FCDABF"/>
<path d="M16.0867 15.168C16.4192 14.9214 16.7261 14.6834 16.9989 14.4454C17.2717 14.2074 17.5275 13.9779 17.7235 13.7824C17.9196 13.5869 18.0986 13.4169 18.2095 13.2979L18.3885 13.1109C18.0278 13.0383 17.6636 12.9844 17.2973 12.9493C16.9318 12.9137 16.5646 12.8995 16.1975 12.9069C15.7522 12.9037 15.3073 12.9379 14.8676 13.0089C13.9491 13.1152 13.0708 13.4451 12.3101 13.9694C11.9661 14.2281 11.6765 14.5515 11.4576 14.9214C11.2646 15.3089 11.1737 15.7389 11.1933 16.171C12.0346 16.5339 12.979 16.5821 13.8531 16.307C14.2631 16.1885 14.6578 16.0231 15.0296 15.814C15.3978 15.6255 15.7512 15.4095 16.0867 15.168Z" fill="#FCDABF"/>
<path d="M13.3646 11.2953C13.8662 11.2953 14.6488 11.3412 15.2857 10.901C15.4584 10.7747 15.6234 10.6385 15.7801 10.4929C15.9441 10.3478 16.0979 10.1916 16.2405 10.0254C16.5483 9.69379 16.8332 9.34161 17.093 8.97135C17.5874 8.24035 18.0137 7.48378 18.3206 6.91426C18.4741 6.63372 18.5812 6.38734 18.6665 6.21736L18.7242 6.07215L18.7554 5.9707L18.3582 5.99855C18.0938 6.03338 17.9392 6.05661 17.6812 6.12373C16.8667 6.32986 16.0819 6.63836 15.3453 7.04177C14.4945 7.48078 13.7587 8.11253 13.197 8.88635C12.9364 9.25402 12.7616 9.67515 12.6855 10.1189C12.6006 10.491 12.603 10.8645 12.6855 11.2495" fill="#FCDABF"/>
<path d="M45.8008 44.75H27.8008C27.3908 44.75 27.0508 44.41 27.0508 44C27.0508 43.59 27.3908 43.25 27.8008 43.25H45.8008C46.2108 43.25 46.5508 43.59 46.5508 44C46.5508 44.41 46.2108 44.75 45.8008 44.75Z" fill="#FCDABF"/>
<path d="M30.4008 41.75H28.8008C27.8408 41.75 27.0508 40.96 27.0508 40V31.38C27.0508 30.42 27.8408 29.63 28.8008 29.63H30.4008C31.3608 29.63 32.1508 30.42 32.1508 31.38V40C32.1508 40.96 31.3608 41.75 30.4008 41.75ZM28.8008 31.12C28.6608 31.12 28.5508 31.23 28.5508 31.37V40C28.5508 40.14 28.6608 40.25 28.8008 40.25H30.4008C30.5408 40.25 30.6508 40.14 30.6508 40V31.38C30.6508 31.24 30.5408 31.13 30.4008 31.13H28.8008V31.12Z" fill="#FCDABF"/>
<path d="M37.6 41.7499H36C35.04 41.7499 34.25 40.9599 34.25 39.9999V28.1899C34.25 27.2299 35.04 26.4399 36 26.4399H37.6C38.56 26.4399 39.35 27.2299 39.35 28.1899V39.9999C39.35 40.9599 38.56 41.7499 37.6 41.7499ZM36 27.9399C35.86 27.9399 35.75 28.0499 35.75 28.1899V39.9999C35.75 40.1399 35.86 40.2499 36 40.2499H37.6C37.74 40.2499 37.85 40.1399 37.85 39.9999V28.1899C37.85 28.0499 37.74 27.9399 37.6 27.9399H36Z" fill="#FCDABF"/>
<path d="M44.7992 41.75H43.1992C42.2392 41.75 41.4492 40.96 41.4492 40V25C41.4492 24.04 42.2392 23.25 43.1992 23.25H44.7992C45.7592 23.25 46.5492 24.04 46.5492 25V40C46.5492 40.96 45.7592 41.75 44.7992 41.75ZM43.1992 24.75C43.0592 24.75 42.9492 24.86 42.9492 25V40C42.9492 40.14 43.0592 40.25 43.1992 40.25H44.7992C44.9392 40.25 45.0492 40.14 45.0492 40V25C45.0492 24.86 44.9392 24.75 44.7992 24.75H43.1992Z" fill="#FCDABF"/>
<path d="M49.2044 59.8978C49.5973 59.5907 50.034 59.3442 50.5002 59.1665C50.9364 59.0132 51.3935 58.9272 51.8557 58.9114C52.8571 58.9002 53.8554 59.026 54.8224 59.2857C55.8114 59.5321 56.7577 59.8209 57.4567 60.0592C58.1558 60.297 58.6162 60.4757 58.6162 60.4757C58.6162 60.4757 58.1643 60.7309 57.4482 61.0369C56.5515 61.4249 55.6134 61.7101 54.652 61.8868C53.5654 62.0997 52.4452 62.0737 51.3698 61.8104C50.8741 61.7045 50.4143 61.4728 50.035 61.1377C49.6555 60.8027 49.3694 60.3754 49.2044 59.8978Z" fill="#FCDABF"/>
<path d="M52.2227 55.528C51.8548 56.411 51.2681 57.1861 50.5177 57.7809C50.162 58.0569 49.748 58.2489 49.3071 58.342C48.8526 58.4347 48.3807 58.3904 47.9516 58.2142C47.922 57.3134 48.1657 56.4248 48.6507 55.6645C49.1138 54.9582 49.6898 54.3319 50.3557 53.8114C50.9342 53.347 51.5406 52.9182 52.1716 52.5276C52.6745 52.2129 53.0241 52.0347 53.0241 52.0347C53.0241 52.0347 53.0241 52.1452 53.0241 52.3408C53.0241 52.5363 52.973 52.7996 52.9133 53.1397C52.7816 53.9611 52.5497 54.7632 52.2227 55.528Z" fill="#FCDABF"/>
<path d="M59.3328 57.8237C58.8511 57.8181 58.377 57.7025 57.947 57.486C57.5169 57.2691 57.1424 56.9575 56.852 56.574C57.0788 56.1738 57.3846 55.8234 57.7508 55.5443C58.1172 55.2653 58.5364 55.0631 58.9833 54.9501C59.9481 54.6929 60.9428 54.5641 61.9416 54.5676C62.9561 54.5676 63.9705 54.5676 64.7292 54.5676H65.9995C65.9995 54.5676 65.9057 54.6781 65.7352 54.8482C65.5647 55.0183 65.3005 55.248 64.9765 55.5112C64.1968 56.1519 63.3372 56.6891 62.419 57.1092C61.4595 57.5823 60.4031 57.8267 59.3328 57.8237Z" fill="#FCDABF"/>
<path d="M57.4057 53.9387C57.1414 54.3013 56.7915 54.5936 56.3871 54.7891C55.9826 54.9852 55.5361 55.0784 55.0869 55.0611C54.7321 54.2071 54.7108 53.2518 55.0272 52.3835C55.33 51.5856 55.7557 50.8401 56.2889 50.1735C56.7748 49.5105 57.2693 48.9406 57.6274 48.5414C57.8064 48.3285 57.9599 48.1671 58.0622 48.0566L58.2241 47.8865C58.2241 47.8865 58.2241 47.9889 58.3094 48.1671C58.3737 48.4222 58.4249 48.6804 58.4628 48.9406C58.5884 49.7549 58.5884 50.5834 58.4628 51.3972C58.3293 52.3194 57.9658 53.1932 57.4057 53.9387Z" fill="#FCDABF"/>
<path d="M69.5629 46.858C70.262 46.637 70.7223 46.5095 70.7223 46.5095C70.7223 46.5095 70.6797 46.6285 70.5859 46.824C70.4922 47.0196 70.3472 47.2831 70.1682 47.6061C69.9892 47.9293 69.7675 48.3031 69.5118 48.6942C69.3839 48.8897 69.2475 49.0852 69.1026 49.2889L68.9917 49.4422L68.8468 49.6291L68.5484 50.0034C67.812 50.9287 66.8321 51.6324 65.7181 52.0347C65.2567 52.2043 64.7602 52.2567 64.2735 52.187C63.7867 52.1172 63.3251 51.9278 62.9303 51.6355C63.158 50.727 63.7057 49.9306 64.4734 49.3913C64.6524 49.2467 64.857 49.1107 65.0616 48.9661L65.7095 48.5582L66.4001 48.1584C66.6132 48.0398 66.8349 47.9293 67.0565 47.8269C67.8693 47.4484 68.7066 47.1247 69.5629 46.858Z" fill="#FCDABF"/>
<path d="M62.6911 48.6091C62.5753 49.0389 62.3457 49.43 62.0262 49.7411C61.7067 50.0522 61.3092 50.2717 60.8753 50.3771C60.3126 49.6652 59.993 48.7924 59.9631 47.8865C59.9406 47.1324 59.992 46.3779 60.1166 45.6339C60.1679 45.2572 60.2477 44.8849 60.3553 44.5203C60.4661 44.1462 60.5769 43.8062 60.6877 43.5257C60.7986 43.2452 60.8923 43.0072 60.9605 42.8457L61.0543 42.5907L61.2334 42.8457C61.3442 43.0157 61.4806 43.2537 61.634 43.5512C62.0302 44.3073 62.3473 45.102 62.5803 45.9228C62.64 46.1524 62.6997 46.3904 62.7508 46.6284C62.7952 46.8531 62.8265 47.0801 62.8446 47.3084C62.8659 47.5346 62.8659 47.7622 62.8446 47.9883C62.8131 48.1997 62.7617 48.4074 62.6911 48.6091Z" fill="#FCDABF"/>
<path d="M70.6372 43.3725C70.4704 43.5657 70.2879 43.7448 70.0915 43.908C69.9069 44.0673 69.7103 44.2123 69.5033 44.3415C69.1167 44.623 68.6712 44.8136 68.2002 44.899C67.7292 44.9844 67.245 44.9624 66.7838 44.8346C66.703 44.3809 66.7323 43.9146 66.869 43.4745C66.9322 43.2661 67.021 43.0662 67.1333 42.8795C67.2445 42.6855 67.3669 42.4982 67.4999 42.3184C68.1109 41.5528 68.8491 40.8972 69.6824 40.3803C70.416 39.8639 71.1789 39.39 71.9671 38.9607L73.0412 38.3827C73.0412 38.3827 73.0412 38.5102 72.9731 38.7227C72.9048 38.9353 72.8281 39.2328 72.7003 39.5728C72.4264 40.468 72.0397 41.3249 71.5493 42.1229C71.2768 42.5614 70.9719 42.9791 70.6372 43.3725Z" fill="#FCDABF"/>
<path d="M65.3003 43.0156C65.109 43.4185 64.815 43.7644 64.4478 44.0187C63.6285 43.5609 63.0179 42.8059 62.7428 41.9106C62.6748 41.7018 62.6207 41.4888 62.5808 41.273L62.5296 40.95C62.5296 40.848 62.5296 40.7375 62.4785 40.627C62.4277 40.1926 62.4106 39.7549 62.4273 39.3179C62.4558 38.5778 62.527 37.8398 62.6405 37.1078C62.6916 36.8188 62.7428 36.5808 62.7769 36.4193C62.811 36.2578 62.828 36.1643 62.828 36.1643L63.0411 36.3768C63.231 36.5651 63.4103 36.7637 63.5782 36.9718C64.1071 37.6178 64.5645 38.3189 64.9423 39.0629C65.3586 39.9016 65.5828 40.8219 65.5987 41.7575C65.5966 41.9784 65.568 42.1981 65.5135 42.4121C65.4653 42.6206 65.3938 42.8231 65.3003 43.0156Z" fill="#FCDABF"/>
<path d="M72.359 35.2972C72.2397 35.5228 72.1028 35.7388 71.9498 35.9432C71.7956 36.1418 71.6275 36.3293 71.4468 36.5043C71.1205 36.8469 70.7215 37.1126 70.279 37.2817C69.8365 37.4508 69.3617 37.5192 68.8893 37.4818C68.7201 37.0555 68.6586 36.5943 68.7102 36.1388C68.7363 35.9218 68.7849 35.7082 68.8552 35.5012C68.9098 35.2864 68.9811 35.076 69.0683 34.8721C69.2736 34.442 69.5283 34.0369 69.827 33.6651L70.2874 33.0871C70.4408 32.8916 70.6113 32.7046 70.7733 32.5176C71.4468 31.7865 72.18 31.1065 72.7 30.6049C73.22 30.1034 73.6037 29.7719 73.6037 29.7719C73.6037 29.7719 73.6037 30.2819 73.6037 31.047C73.5639 31.4863 73.5013 31.9232 73.4161 32.356C73.365 32.5941 73.3138 32.8406 73.2541 33.0871C73.1989 33.3406 73.1278 33.5905 73.041 33.8351C72.8478 34.3376 72.6199 34.8261 72.359 35.2972Z" fill="#FCDABF"/>
<path d="M66.4339 36.9293C65.5607 36.6373 64.8281 36.0311 64.3793 35.2292C64.2703 35.0443 64.1762 34.851 64.098 34.6511C64.0005 34.4554 63.9151 34.2538 63.8423 34.0477C63.7081 33.6511 63.6055 33.2446 63.5353 32.8321C63.4587 32.4325 63.3734 32.0415 63.3308 31.6845C63.3308 31.4975 63.3308 31.3275 63.2796 31.166C63.2285 31.0044 63.2796 30.8515 63.2796 30.7069C63.2327 30.3972 63.2042 30.085 63.1944 29.7719C63.1944 29.7719 63.5695 29.9844 64.1066 30.3669L64.5413 30.6899C64.6948 30.8174 64.8482 30.945 65.0017 31.0895C65.3346 31.3866 65.6452 31.7076 65.9309 32.05C66.0759 32.2285 66.2208 32.4155 66.3572 32.6111L66.5448 32.9086L66.7067 33.2231C66.9098 33.6299 67.0589 34.0614 67.15 34.5067C67.1975 34.7216 67.2204 34.9412 67.2183 35.1612C67.2056 35.3738 67.1714 35.5846 67.116 35.7902C66.9934 36.2232 66.7581 36.6162 66.4339 36.9293Z" fill="#FCDABF"/>
<path d="M69.9801 24.6716C70.2102 24.2296 70.4575 23.8216 70.6962 23.4051L71.3526 22.3425C71.7363 21.722 72.0176 21.3225 72.0176 21.3225C72.0176 21.3225 72.1625 21.807 72.316 22.555C72.3671 22.9375 72.4268 23.4051 72.4609 23.8726C72.4609 24.1106 72.4609 24.3656 72.4609 24.6207C72.4609 24.8756 72.4609 25.1392 72.4609 25.4027C72.4193 25.9302 72.3338 26.4534 72.2051 26.9668C72.071 27.4592 71.8702 27.931 71.6083 28.3694C71.373 28.7788 71.0458 29.1285 70.6524 29.391C70.259 29.6535 69.8101 29.8217 69.3407 29.8824C69.213 29.689 69.1099 29.4806 69.0338 29.2619C68.9532 29.0564 68.896 28.8425 68.8633 28.6243C68.7978 28.1883 68.8181 27.7437 68.9229 27.3153C69.0205 26.8558 69.1604 26.4062 69.3407 25.9722C69.5282 25.5217 69.7584 25.0627 69.9801 24.6716Z" fill="#FCDABF"/>
<path d="M64.4644 28.5138C64.1627 28.219 63.8993 27.8878 63.6801 27.5278C63.4406 27.1902 63.2323 26.8317 63.0577 26.4567C62.9639 26.2782 62.8958 26.0997 62.8105 25.9297L62.5888 25.4197C62.4524 25.0881 62.3501 24.7821 62.2564 24.5186C62.0603 24.0001 61.9665 23.6686 61.9665 23.6686C62.3218 23.7603 62.6718 23.8709 63.0151 24.0001C63.7826 24.2877 64.508 24.6765 65.172 25.1562C65.3659 25.2885 65.551 25.4333 65.7261 25.5897C65.8966 25.7455 66.0587 25.91 66.212 26.0827C66.518 26.4245 66.7735 26.808 66.9708 27.2217C67.1453 27.6123 67.2354 28.0352 67.2351 28.4628C67.2409 28.6757 67.2121 28.8882 67.1498 29.0918C67.0797 29.31 66.9823 29.5185 66.86 29.7124C65.9452 29.6051 65.0974 29.1809 64.4644 28.5138Z" fill="#FCDABF"/>
<path d="M67.4573 21.9346C67.3242 21.7616 67.2125 21.5732 67.1248 21.3735C67.0406 21.1768 66.9777 20.9716 66.9372 20.7615C66.9372 20.549 66.8776 20.328 66.852 20.1069C66.8244 19.6437 66.8502 19.1788 66.9287 18.7214C66.9936 18.2317 67.0876 17.7463 67.2101 17.2678C67.4573 16.2987 67.7215 15.3892 67.9688 14.7176C68.216 14.0461 68.3695 13.5361 68.3695 13.5361C68.3695 13.5361 68.4377 13.6466 68.54 13.8336C68.6423 14.0206 68.7787 14.3096 68.9406 14.6837C69.3267 15.5377 69.6127 16.4334 69.7932 17.3528C69.8778 17.8616 69.9262 18.3757 69.9381 18.8914C69.9352 19.1474 69.9152 19.403 69.8784 19.6564C69.8385 19.9002 69.7844 20.1415 69.7164 20.379C69.5926 20.8318 69.3715 21.2523 69.0685 21.6115C68.7586 21.9862 68.3602 22.2783 67.9091 22.4616C67.7351 22.3072 67.5831 22.1299 67.4573 21.9346Z" fill="#FCDABF"/>
<path d="M59.375 18.2454C59.2813 18.1093 59.2387 18.0329 59.2387 18.0329H59.537C59.7416 18.0329 60.0059 18.0329 60.3298 18.1009C60.6538 18.1689 61.0375 18.2029 61.4466 18.2964C61.6512 18.3389 61.8644 18.3984 62.0775 18.4579C62.2906 18.5174 62.4952 18.6024 62.7084 18.6874C63.1445 18.8524 63.5618 19.0632 63.9531 19.3164C64.3267 19.5547 64.6678 19.8405 64.9676 20.1665C65.1055 20.3302 65.2228 20.51 65.3171 20.702C65.4095 20.8901 65.4837 21.0865 65.5387 21.2885C65.5969 21.4931 65.6256 21.7049 65.624 21.9176C65.6054 22.1453 65.5625 22.3704 65.4961 22.5891C65.0316 22.6792 64.554 22.6792 64.0894 22.5891C63.6655 22.4922 63.2577 22.3347 62.8789 22.1216C62.6998 22.0111 62.5208 21.9006 62.3503 21.7731L62.1116 21.5776L61.8644 21.3736C61.5563 21.1151 61.271 20.8307 61.0118 20.5235C60.756 20.255 60.5168 19.9711 60.2958 19.6734L60.1423 19.4524L59.9974 19.2569C59.8951 19.1209 59.8098 18.9934 59.7331 18.8829C59.6564 18.7724 59.4518 18.3899 59.375 18.2454Z" fill="#FCDABF"/>
<path d="M64.6779 15.6781C64.275 15.4819 63.9266 15.19 63.6634 14.8281C63.3995 14.4834 63.2055 14.0907 63.0922 13.672C62.6284 11.8864 62.7511 9.98913 62.9132 8.17223C62.9899 7.46669 63.0666 6.99066 63.0666 6.99066C63.4116 7.25817 63.6726 7.5687 63.9277 7.92571C64.1862 8.26333 64.4252 8.61521 64.6438 8.97976C64.8984 9.40441 65.1261 9.84444 65.3258 10.2973C65.5284 10.7703 65.691 11.2594 65.8117 11.7595C65.9128 12.2456 65.9529 12.7425 65.9311 13.2385C65.9192 13.7129 65.8003 14.1785 65.5834 14.6008C65.3665 15.0231 65.0569 15.3913 64.6779 15.6781Z" fill="#FCDABF"/>
<path d="M57.517 15.168C57.1845 14.9214 56.8776 14.6834 56.6048 14.4454C56.332 14.2074 56.0762 13.9779 55.8801 13.7824C55.684 13.5869 55.505 13.4169 55.3942 13.2979L55.2152 13.1109C55.5759 13.0383 55.9401 12.9844 56.3064 12.9493C56.6718 12.9137 57.039 12.8995 57.4061 12.9069C57.8515 12.9037 58.2964 12.9379 58.7361 13.0089C59.6546 13.1152 60.5329 13.4451 61.2936 13.9694C61.6376 14.2281 61.9272 14.5515 62.1461 14.9214C62.3391 15.3089 62.43 15.7389 62.4104 16.171C61.5691 16.5339 60.6247 16.5821 59.7505 16.307C59.3406 16.1885 58.9459 16.0231 58.5741 15.814C58.2059 15.6255 57.8525 15.4095 57.517 15.168Z" fill="#FCDABF"/>
<path d="M60.239 11.2953C59.7375 11.2953 58.9548 11.3412 58.318 10.901C58.1453 10.7747 57.9802 10.6385 57.8236 10.4929C57.6596 10.3478 57.5057 10.1916 57.3632 10.0254C57.0554 9.69379 56.7705 9.34161 56.5107 8.97135C56.0162 8.24035 55.59 7.48378 55.2831 6.91426C55.1296 6.63372 55.0224 6.38734 54.9372 6.21736L54.8795 6.07215L54.8483 5.9707L55.2455 5.99855C55.5099 6.03338 55.6645 6.05661 55.9225 6.12373C56.7369 6.32986 57.5218 6.63836 58.2584 7.04177C59.1092 7.48078 59.845 8.11253 60.4067 8.88635C60.6673 9.25402 60.8421 9.67515 60.9182 10.1189C61.003 10.491 61.0007 10.8645 60.9182 11.2495" fill="#FCDABF"/>
</g>
<defs>
<clipPath id="clip0_14878_4425">
<rect width="73.603" height="68" fill="white"/>
</clipPath>
</defs>
</svg>
