<svg width="75" height="68" viewBox="0 0 75 68" fill="none" xmlns="http://www.w3.org/2000/svg">
<g clip-path="url(#clip0_14878_4441)">
<path d="M25.2548 59.8978C24.8619 59.5907 24.4251 59.3442 23.9589 59.1665C23.5227 59.0132 23.0657 58.9272 22.6034 58.9114C21.602 58.9002 20.6038 59.026 19.6367 59.2857C18.6478 59.5321 17.7015 59.8209 17.0024 60.0592C16.3034 60.297 15.843 60.4757 15.843 60.4757C15.843 60.4757 16.2948 60.7309 17.0109 61.0369C17.9077 61.4249 18.8458 61.7101 19.8072 61.8868C20.8938 62.0997 22.0139 62.0737 23.0894 61.8104C23.585 61.7045 24.0448 61.4728 24.4242 61.1377C24.8036 60.8027 25.0897 60.3754 25.2548 59.8978Z" fill="#FCDABF"/>
<path d="M22.2364 55.528C22.6043 56.411 23.191 57.1861 23.9415 57.7809C24.2971 58.0569 24.7111 58.2489 25.1521 58.342C25.6065 58.4347 26.0784 58.3904 26.5075 58.2142C26.5371 57.3134 26.2935 56.4248 25.8084 55.6645C25.3453 54.9582 24.7694 54.3319 24.1034 53.8114C23.525 53.347 22.9185 52.9182 22.2876 52.5276C21.7846 52.2129 21.4351 52.0347 21.4351 52.0347C21.4351 52.0347 21.4351 52.1452 21.4351 52.3408C21.4351 52.5363 21.4862 52.7996 21.5459 53.1397C21.6776 53.9611 21.9095 54.7632 22.2364 55.528Z" fill="#FCDABF"/>
<path d="M15.1263 57.8237C15.6081 57.8181 16.0822 57.7025 16.5122 57.486C16.9422 57.2691 17.3168 56.9575 17.6071 56.574C17.3804 56.1738 17.0746 55.8234 16.7083 55.5443C16.342 55.2653 15.9227 55.0631 15.4759 54.9501C14.5111 54.6929 13.5163 54.5641 12.5176 54.5676C11.5031 54.5676 10.4886 54.5676 9.7299 54.5676H8.45962C8.45962 54.5676 8.55342 54.6781 8.72391 54.8482C8.8944 55.0183 9.1587 55.248 9.48267 55.5112C10.2623 56.1519 11.122 56.6891 12.0402 57.1092C12.9996 57.5823 14.056 57.8267 15.1263 57.8237Z" fill="#FCDABF"/>
<path d="M17.0534 53.9387C17.3178 54.3013 17.6676 54.5936 18.0721 54.7891C18.4765 54.9852 18.9231 55.0784 19.3722 55.0611C19.727 54.2071 19.7483 53.2518 19.4319 52.3835C19.1291 51.5856 18.7035 50.8401 18.1702 50.1735C17.6843 49.5105 17.1898 48.9406 16.8318 48.5414C16.6527 48.3285 16.4993 48.1671 16.397 48.0566L16.235 47.8865C16.235 47.8865 16.235 47.9889 16.1498 48.1671C16.0855 48.4222 16.0342 48.6804 15.9963 48.9406C15.8708 49.7549 15.8708 50.5834 15.9963 51.3972C16.1299 52.3194 16.4934 53.1932 17.0534 53.9387Z" fill="#FCDABF"/>
<path d="M4.89622 46.858C4.19715 46.637 3.7368 46.5095 3.7368 46.5095C3.7368 46.5095 3.77943 46.6285 3.87323 46.824C3.96698 47.0196 4.1119 47.2831 4.29095 47.6061C4.46994 47.9293 4.69161 48.3031 4.9474 48.6942C5.07526 48.8897 5.21164 49.0852 5.35656 49.2889L5.46742 49.4422L5.61235 49.6291L5.91071 50.0034C6.64716 50.9287 7.62702 51.6324 8.74107 52.0347C9.20243 52.2043 9.69893 52.2567 10.1857 52.187C10.6724 52.1172 11.134 51.9278 11.5288 51.6355C11.3012 50.727 10.7535 49.9306 9.98573 49.3913C9.80674 49.2467 9.60213 49.1107 9.39752 48.9661L8.74962 48.5582L8.05905 48.1584C7.84594 48.0398 7.62427 47.9293 7.4026 47.8269C6.58987 47.4484 5.75254 47.1247 4.89622 46.858Z" fill="#FCDABF"/>
<path d="M11.768 48.6091C11.8838 49.0389 12.1135 49.43 12.433 49.7411C12.7524 50.0522 13.15 50.2717 13.5839 50.3771C14.1465 49.6652 14.4661 48.7924 14.4961 47.8865C14.5186 47.1324 14.4672 46.3779 14.3426 45.6339C14.2912 45.2572 14.2114 44.8849 14.1039 44.5203C13.993 44.1462 13.8822 43.8062 13.7714 43.5257C13.6606 43.2452 13.5668 43.0072 13.4986 42.8457L13.4048 42.5907L13.2258 42.8457C13.115 43.0157 12.9785 43.2537 12.8251 43.5512C12.4289 44.3073 12.1118 45.102 11.8788 45.9228C11.8191 46.1524 11.7594 46.3904 11.7083 46.6284C11.664 46.8531 11.6326 47.0801 11.6145 47.3084C11.5932 47.5346 11.5932 47.7622 11.6145 47.9883C11.646 48.1997 11.6974 48.4074 11.768 48.6091Z" fill="#FCDABF"/>
<path d="M3.82199 43.3725C3.98876 43.5657 4.17127 43.7448 4.36763 43.908C4.55223 44.0673 4.74889 44.2123 4.95584 44.3415C5.34245 44.623 5.78793 44.8136 6.25892 44.899C6.7299 44.9844 7.21413 44.9624 7.67539 44.8346C7.75611 44.3809 7.72688 43.9146 7.59015 43.4745C7.52695 43.2661 7.43819 43.0662 7.32586 42.8795C7.21469 42.6855 7.09227 42.4982 6.95926 42.3184C6.34824 41.5528 5.61005 40.8972 4.7768 40.3803C4.0431 39.8639 3.28027 39.39 2.49208 38.9607L1.41791 38.3827C1.41791 38.3827 1.41791 38.5102 1.4861 38.7227C1.55433 38.9353 1.63102 39.2328 1.75889 39.5728C2.0327 40.468 2.41941 41.3249 2.9098 42.1229C3.18234 42.5614 3.48727 42.9791 3.82199 43.3725Z" fill="#FCDABF"/>
<path d="M9.15885 43.0156C9.35017 43.4185 9.64415 43.7644 10.0114 44.0187C10.8306 43.5609 11.4413 42.8059 11.7164 41.9106C11.7843 41.7018 11.8385 41.4888 11.8783 41.273L11.9295 40.95C11.9295 40.848 11.9295 40.7375 11.9807 40.627C12.0315 40.1926 12.0486 39.7549 12.0318 39.3179C12.0033 38.5778 11.9321 37.8398 11.8187 37.1078C11.7675 36.8188 11.7164 36.5808 11.6823 36.4193C11.6482 36.2578 11.6311 36.1643 11.6311 36.1643L11.418 36.3768C11.2281 36.5651 11.0488 36.7637 10.8809 36.9718C10.352 37.6178 9.89469 38.3189 9.51689 39.0629C9.1006 39.9016 8.87638 40.8219 8.86044 41.7575C8.86253 41.9784 8.89115 42.1981 8.94569 42.4121C8.99386 42.6206 9.06536 42.8231 9.15885 43.0156Z" fill="#FCDABF"/>
<path d="M2.10013 35.2972C2.21949 35.5228 2.35633 35.7388 2.50935 35.9432C2.6636 36.1418 2.83164 36.3293 3.01232 36.5043C3.33863 36.8469 3.73762 37.1126 4.18014 37.2817C4.62266 37.4508 5.09747 37.5192 5.56988 37.4818C5.73905 37.0555 5.80056 36.5943 5.74893 36.1388C5.7228 35.9218 5.67427 35.7082 5.604 35.5012C5.54936 35.2864 5.47806 35.076 5.39083 34.8721C5.18551 34.442 4.9309 34.0369 4.63213 33.6651L4.17173 33.0871C4.0183 32.8916 3.84781 32.7046 3.68583 32.5176C3.01232 31.7865 2.27918 31.1065 1.75915 30.6049C1.23912 30.1034 0.855469 29.7719 0.855469 29.7719C0.855469 29.7719 0.855469 30.2819 0.855469 31.047C0.89524 31.4863 0.957824 31.9232 1.04302 32.356C1.0942 32.5941 1.14532 32.8406 1.205 33.0871C1.26021 33.3406 1.3314 33.5905 1.41812 33.8351C1.61137 34.3376 1.83925 34.8261 2.10013 35.2972Z" fill="#FCDABF"/>
<path d="M8.0252 36.9293C8.89843 36.6373 9.63101 36.0311 10.0798 35.2292C10.1889 35.0443 10.2829 34.851 10.3611 34.6511C10.4587 34.4554 10.5441 34.2538 10.6169 34.0477C10.7511 33.6511 10.8537 33.2446 10.9238 32.8321C11.0005 32.4325 11.0857 32.0415 11.1284 31.6845C11.1284 31.4975 11.1284 31.3275 11.1795 31.166C11.2307 31.0044 11.1795 30.8515 11.1795 30.7069C11.2265 30.3972 11.255 30.085 11.2648 29.7719C11.2648 29.7719 10.8897 29.9844 10.3526 30.3669L9.91781 30.6899C9.76438 30.8174 9.6109 30.945 9.45747 31.0895C9.12453 31.3866 8.81395 31.7076 8.52822 32.05C8.3833 32.2285 8.23837 32.4155 8.10195 32.6111L7.9144 32.9086L7.75241 33.2231C7.54933 33.6299 7.40028 34.0614 7.30912 34.5067C7.26161 34.7216 7.23875 34.9412 7.24089 35.1612C7.25352 35.3738 7.28779 35.5846 7.34319 35.7902C7.46576 36.2232 7.70108 36.6162 8.0252 36.9293Z" fill="#FCDABF"/>
<path d="M4.47908 24.6716C4.2489 24.2296 4.00167 23.8216 3.763 23.4051L3.10655 22.3425C2.72289 21.722 2.44159 21.3225 2.44159 21.3225C2.44159 21.3225 2.29667 21.807 2.14318 22.555C2.09206 22.9375 2.03237 23.4051 1.99825 23.8726C1.99825 24.1106 1.99825 24.3656 1.99825 24.6207C1.99825 24.8756 1.99825 25.1392 1.99825 25.4027C2.03981 25.9302 2.12536 26.4534 2.25404 26.9668C2.38817 27.4592 2.58891 27.931 2.85081 28.3694C3.08618 28.7788 3.41331 29.1285 3.80674 29.391C4.20012 29.6535 4.64906 29.8217 5.11847 29.8824C5.24613 29.689 5.34925 29.4806 5.42538 29.2619C5.50594 29.0564 5.56313 28.8425 5.59587 28.6243C5.66131 28.1883 5.64104 27.7437 5.53624 27.3153C5.43862 26.8558 5.29879 26.4062 5.11847 25.9722C4.93092 25.5217 4.70074 25.0627 4.47908 24.6716Z" fill="#FCDABF"/>
<path d="M9.99475 28.5138C10.2964 28.219 10.5599 27.8878 10.7791 27.5278C11.0185 27.1902 11.2268 26.8317 11.4014 26.4567C11.4952 26.2782 11.5634 26.0997 11.6486 25.9297L11.8703 25.4197C12.0067 25.0881 12.109 24.7821 12.2028 24.5186C12.3989 24.0001 12.4926 23.6686 12.4926 23.6686C12.1374 23.7603 11.7873 23.8709 11.444 24.0001C10.6766 24.2877 9.95116 24.6765 9.28717 25.1562C9.09321 25.2885 8.9081 25.4333 8.73303 25.5897C8.56259 25.7455 8.4004 25.91 8.24712 26.0827C7.94117 26.4245 7.68569 26.808 7.48837 27.2217C7.3138 27.6123 7.22377 28.0352 7.22408 28.4628C7.21827 28.6757 7.24704 28.8882 7.30932 29.0918C7.37944 29.31 7.47686 29.5185 7.59917 29.7124C8.51391 29.6051 9.36178 29.1809 9.99475 28.5138Z" fill="#FCDABF"/>
<path d="M7.00186 21.9346C7.13497 21.7616 7.24665 21.5732 7.33439 21.3735C7.41856 21.1768 7.48145 20.9716 7.52194 20.7615C7.52194 20.549 7.58157 20.328 7.60718 20.1069C7.63473 19.6437 7.60896 19.1788 7.53044 18.7214C7.46551 18.2317 7.37156 17.7463 7.24909 17.2678C7.00186 16.2987 6.73762 15.3892 6.49039 14.7176C6.24315 14.0461 6.08967 13.5361 6.08967 13.5361C6.08967 13.5361 6.02149 13.6466 5.91918 13.8336C5.81688 14.0206 5.68046 14.3096 5.51852 14.6837C5.13247 15.5377 4.84644 16.4334 4.66596 17.3528C4.58133 17.8616 4.5329 18.3757 4.52104 18.8914C4.52399 19.1474 4.5439 19.403 4.58072 19.6564C4.62069 19.9002 4.67477 20.1415 4.74271 20.379C4.86655 20.8318 5.08766 21.2523 5.3906 21.6115C5.70052 21.9862 6.09894 22.2783 6.55007 22.4616C6.72402 22.3072 6.87603 22.1299 7.00186 21.9346Z" fill="#FCDABF"/>
<path d="M15.0841 18.2454C15.1779 18.1093 15.2205 18.0329 15.2205 18.0329H14.9221C14.7175 18.0329 14.4532 18.0329 14.1293 18.1009C13.8053 18.1689 13.4217 18.2029 13.0125 18.2964C12.8079 18.3389 12.5947 18.3984 12.3816 18.4579C12.1685 18.5174 11.9639 18.6024 11.7508 18.6874C11.3146 18.8524 10.8974 19.0632 10.5061 19.3164C10.1324 19.5547 9.79138 19.8405 9.49159 20.1665C9.35369 20.3302 9.23632 20.51 9.14206 20.702C9.04968 20.8901 8.97549 21.0865 8.92044 21.2885C8.86224 21.4931 8.83356 21.7049 8.83514 21.9176C8.85378 22.1453 8.89666 22.3704 8.96306 22.5891C9.42758 22.6792 9.90519 22.6792 10.3697 22.5891C10.7937 22.4922 11.2014 22.3347 11.5803 22.1216C11.7593 22.0111 11.9383 21.9006 12.1088 21.7731L12.3475 21.5776L12.5947 21.3736C12.9029 21.1151 13.1881 20.8307 13.4473 20.5235C13.7032 20.255 13.9424 19.9711 14.1634 19.6734L14.3169 19.4524L14.4618 19.2569C14.5641 19.1209 14.6493 18.9934 14.726 18.8829C14.8028 18.7724 15.0074 18.3899 15.0841 18.2454Z" fill="#FCDABF"/>
<path d="M9.78128 15.6781C10.1842 15.4819 10.5325 15.19 10.7958 14.8281C11.0596 14.4834 11.2536 14.0907 11.3669 13.672C11.8307 11.8864 11.708 9.98913 11.546 8.17223C11.4692 7.46669 11.3925 6.99066 11.3925 6.99066C11.0476 7.25817 10.7865 7.5687 10.5315 7.92571C10.273 8.26333 10.0339 8.61521 9.81535 8.97976C9.56078 9.40441 9.333 9.84444 9.13333 10.2973C8.93071 10.7703 8.76816 11.2594 8.64743 11.7595C8.54634 12.2456 8.50622 12.7425 8.52806 13.2385C8.53998 13.7129 8.65883 14.1785 8.87576 14.6008C9.0927 15.0231 9.40221 15.3913 9.78128 15.6781Z" fill="#FCDABF"/>
<path d="M16.9422 15.168C17.2747 14.9214 17.5816 14.6834 17.8544 14.4454C18.1272 14.2074 18.383 13.9779 18.579 13.7824C18.7751 13.5869 18.9541 13.4169 19.065 13.2979L19.244 13.1109C18.8833 13.0383 18.5191 12.9844 18.1528 12.9493C17.7873 12.9137 17.4201 12.8995 17.053 12.9069C16.6076 12.9037 16.1628 12.9379 15.7231 13.0089C14.8045 13.1152 13.9263 13.4451 13.1655 13.9694C12.8216 14.2281 12.5319 14.5515 12.313 14.9214C12.1201 15.3089 12.0291 15.7389 12.0487 16.171C12.8901 16.5339 13.8345 16.5821 14.7086 16.307C15.1185 16.1885 15.5133 16.0231 15.8851 15.814C16.2533 15.6255 16.6067 15.4095 16.9422 15.168Z" fill="#FCDABF"/>
<path d="M14.2201 11.2953C14.7216 11.2953 15.5043 11.3412 16.1411 10.901C16.3138 10.7747 16.4789 10.6385 16.6356 10.4929C16.7996 10.3478 16.9534 10.1916 17.096 10.0254C17.4038 9.69379 17.6886 9.34161 17.9485 8.97135C18.4429 8.24035 18.8692 7.48378 19.1761 6.91426C19.3295 6.63372 19.4367 6.38734 19.522 6.21736L19.5796 6.07215L19.6108 5.9707L19.2136 5.99855C18.9493 6.03338 18.7947 6.05661 18.5367 6.12373C17.7222 6.32986 16.9373 6.63836 16.2008 7.04177C15.3499 7.48078 14.6142 8.11253 14.0525 8.88635C13.7919 9.25402 13.6171 9.67515 13.541 10.1189C13.4561 10.491 13.4585 10.8645 13.541 11.2495" fill="#FCDABF"/>
<path d="M41.8949 44.67C41.4649 44.67 40.9249 44.54 40.2549 44.14L38.0149 42.81C37.8449 42.71 37.4649 42.71 37.2949 42.81L35.0549 44.14C33.6349 44.98 32.7749 44.63 32.3949 44.35C32.0149 44.07 31.4149 43.35 31.7849 41.75L32.3149 39.44C32.3549 39.26 32.2549 38.92 32.1249 38.78L30.2649 36.92C29.2649 35.92 29.3449 35.05 29.4849 34.61C29.6249 34.17 30.0649 33.42 31.4549 33.18L33.8449 32.78C34.0149 32.75 34.2849 32.55 34.3549 32.4L35.6749 29.76C36.3249 28.47 37.1849 28.27 37.6449 28.27C38.1049 28.27 38.9649 28.46 39.6149 29.76L40.9349 32.4C41.0149 32.55 41.2849 32.75 41.4449 32.78L43.8349 33.18C45.2249 33.41 45.6649 34.17 45.8049 34.61C45.9449 35.05 46.0249 35.92 45.0249 36.92L43.1649 38.78C43.0349 38.91 42.9349 39.26 42.9749 39.44L43.5049 41.74C43.8749 43.35 43.2849 44.06 42.8949 44.34C42.7149 44.5 42.3749 44.67 41.8949 44.67ZM37.6549 41.24C38.0549 41.24 38.4549 41.33 38.7749 41.52L41.0149 42.85C41.6049 43.2 41.9549 43.2 42.0249 43.14C42.1049 43.08 42.2049 42.75 42.0549 42.09L41.5249 39.79C41.3649 39.11 41.6249 38.23 42.1149 37.74L43.9749 35.88C44.3449 35.51 44.4249 35.22 44.3849 35.09C44.3449 34.96 44.1149 34.77 43.5949 34.69L41.2049 34.29C40.5649 34.18 39.8849 33.68 39.5949 33.1L38.2749 30.46C38.0449 30.01 37.7949 29.8 37.6449 29.8C37.4949 29.8 37.2449 30 37.0149 30.46L35.6949 33.1C35.4049 33.68 34.7249 34.18 34.0849 34.29L31.6949 34.69C31.1749 34.78 30.9449 34.96 30.9049 35.09C30.8649 35.22 30.9449 35.51 31.3149 35.88L33.1749 37.74C33.6649 38.23 33.9249 39.12 33.7649 39.79L33.2349 42.1C33.0849 42.77 33.1849 43.1 33.2649 43.15C33.3449 43.21 33.6949 43.21 34.2749 42.86L36.5149 41.53C36.8549 41.34 37.2549 41.24 37.6549 41.24Z" fill="#FCDABF"/>
<path d="M31.6562 31.75C31.2463 31.75 30.9062 31.41 30.9062 31V24C30.9062 23.59 31.2463 23.25 31.6562 23.25C32.0662 23.25 32.4062 23.59 32.4062 24V31C32.4062 31.41 32.0662 31.75 31.6562 31.75Z" fill="#FCDABF"/>
<path d="M43.6562 31.75C43.2463 31.75 42.9062 31.41 42.9062 31V24C42.9062 23.59 43.2463 23.25 43.6562 23.25C44.0662 23.25 44.4062 23.59 44.4062 24V31C44.4062 31.41 44.0662 31.75 43.6562 31.75Z" fill="#FCDABF"/>
<path d="M37.6562 26.75C37.2463 26.75 36.9062 26.41 36.9062 26V24C36.9062 23.59 37.2463 23.25 37.6562 23.25C38.0662 23.25 38.4062 23.59 38.4062 24V26C38.4062 26.41 38.0662 26.75 37.6562 26.75Z" fill="#FCDABF"/>
<path d="M50.0598 59.8978C50.4527 59.5907 50.8895 59.3442 51.3557 59.1665C51.7919 59.0132 52.249 58.9272 52.7112 58.9114C53.7126 58.9002 54.7108 59.026 55.6779 59.2857C56.6668 59.5321 57.6131 59.8209 58.3122 60.0592C59.0112 60.297 59.4716 60.4757 59.4716 60.4757C59.4716 60.4757 59.0198 60.7309 58.3037 61.0369C57.407 61.4249 56.4689 61.7101 55.5074 61.8868C54.4208 62.0997 53.3007 62.0737 52.2252 61.8104C51.7296 61.7045 51.2698 61.4728 50.8904 61.1377C50.511 60.8027 50.2249 60.3754 50.0598 59.8978Z" fill="#FCDABF"/>
<path d="M53.0782 55.528C52.7103 56.411 52.1236 57.1861 51.3732 57.7809C51.0175 58.0569 50.6035 58.2489 50.1626 58.342C49.7081 58.4347 49.2362 58.3904 48.8071 58.2142C48.7775 57.3134 49.0211 56.4248 49.5062 55.6645C49.9693 54.9582 50.5453 54.3319 51.2112 53.8114C51.7897 53.347 52.3961 52.9182 53.027 52.5276C53.53 52.2129 53.8795 52.0347 53.8795 52.0347C53.8795 52.0347 53.8795 52.1452 53.8795 52.3408C53.8795 52.5363 53.8284 52.7996 53.7687 53.1397C53.6371 53.9611 53.4051 54.7632 53.0782 55.528Z" fill="#FCDABF"/>
<path d="M60.1883 57.8237C59.7066 57.8181 59.2325 57.7025 58.8024 57.486C58.3724 57.2691 57.9978 56.9575 57.7075 56.574C57.9342 56.1738 58.24 55.8234 58.6063 55.5443C58.9727 55.2653 59.3919 55.0631 59.8388 54.9501C60.8035 54.6929 61.7983 54.5641 62.797 54.5676C63.8115 54.5676 64.826 54.5676 65.5847 54.5676H66.855C66.855 54.5676 66.7612 54.6781 66.5907 54.8482C66.4202 55.0183 66.1559 55.248 65.8319 55.5112C65.0523 56.1519 64.1926 56.6891 63.2744 57.1092C62.315 57.5823 61.2586 57.8267 60.1883 57.8237Z" fill="#FCDABF"/>
<path d="M58.2612 53.9387C57.9969 54.3013 57.647 54.5936 57.2425 54.7891C56.8381 54.9852 56.3916 55.0784 55.9424 55.0611C55.5876 54.2071 55.5663 53.2518 55.8827 52.3835C56.1855 51.5856 56.6111 50.8401 57.1444 50.1735C57.6303 49.5105 58.1248 48.9406 58.4828 48.5414C58.6619 48.3285 58.8154 48.1671 58.9177 48.0566L59.0796 47.8865C59.0796 47.8865 59.0796 47.9889 59.1648 48.1671C59.2292 48.4222 59.2804 48.6804 59.3183 48.9406C59.4438 49.7549 59.4438 50.5834 59.3183 51.3972C59.1847 52.3194 58.8213 53.1932 58.2612 53.9387Z" fill="#FCDABF"/>
<path d="M70.4184 46.858C71.1175 46.637 71.5778 46.5095 71.5778 46.5095C71.5778 46.5095 71.5352 46.6285 71.4414 46.824C71.3476 47.0196 71.2027 47.2831 71.0237 47.6061C70.8447 47.9293 70.623 48.3031 70.3672 48.6942C70.2394 48.8897 70.103 49.0852 69.9581 49.2889L69.8472 49.4422L69.7023 49.6291L69.4039 50.0034C68.6675 50.9287 67.6876 51.6324 66.5736 52.0347C66.1122 52.2043 65.6157 52.2567 65.129 52.187C64.6422 52.1172 64.1806 51.9278 63.7858 51.6355C64.0134 50.727 64.5611 49.9306 65.3289 49.3913C65.5079 49.2467 65.7125 49.1107 65.9171 48.9661L66.565 48.5582L67.2556 48.1584C67.4687 48.0398 67.6903 47.9293 67.912 47.8269C68.7247 47.4484 69.5621 47.1247 70.4184 46.858Z" fill="#FCDABF"/>
<path d="M63.5466 48.6091C63.4308 49.0389 63.2012 49.43 62.8817 49.7411C62.5622 50.0522 62.1647 50.2717 61.7307 50.3771C61.1681 49.6652 60.8485 48.7924 60.8186 47.8865C60.7961 47.1324 60.8474 46.3779 60.972 45.6339C61.0234 45.2572 61.1032 44.8849 61.2107 44.5203C61.3216 44.1462 61.4324 43.8062 61.5432 43.5257C61.6541 43.2452 61.7478 43.0072 61.816 42.8457L61.9098 42.5907L62.0888 42.8457C62.1996 43.0157 62.3361 43.2537 62.4895 43.5512C62.8857 44.3073 63.2028 45.102 63.4358 45.9228C63.4955 46.1524 63.5552 46.3904 63.6063 46.6284C63.6507 46.8531 63.682 47.0801 63.7001 47.3084C63.7214 47.5346 63.7214 47.7622 63.7001 47.9883C63.6686 48.1997 63.6172 48.4074 63.5466 48.6091Z" fill="#FCDABF"/>
<path d="M71.4926 43.3725C71.3259 43.5657 71.1433 43.7448 70.947 43.908C70.7624 44.0673 70.5657 44.2123 70.3588 44.3415C69.9722 44.623 69.5267 44.8136 69.0557 44.899C68.5847 44.9844 68.1005 44.9624 67.6392 44.8346C67.5585 44.3809 67.5877 43.9146 67.7245 43.4745C67.7877 43.2661 67.8764 43.0662 67.9888 42.8795C68.0999 42.6855 68.2223 42.4982 68.3554 42.3184C68.9664 41.5528 69.7046 40.8972 70.5378 40.3803C71.2715 39.8639 72.0343 39.39 72.8225 38.9607L73.8967 38.3827C73.8967 38.3827 73.8967 38.5102 73.8285 38.7227C73.7603 38.9353 73.6836 39.2328 73.5557 39.5728C73.2819 40.468 72.8952 41.3249 72.4048 42.1229C72.1323 42.5614 71.8273 42.9791 71.4926 43.3725Z" fill="#FCDABF"/>
<path d="M66.1558 43.0156C65.9644 43.4185 65.6705 43.7644 65.3033 44.0187C64.484 43.5609 63.8733 42.8059 63.5983 41.9106C63.5303 41.7018 63.4761 41.4888 63.4363 41.273L63.3851 40.95C63.3851 40.848 63.3851 40.7375 63.334 40.627C63.2831 40.1926 63.266 39.7549 63.2828 39.3179C63.3113 38.5778 63.3825 37.8398 63.4959 37.1078C63.5471 36.8188 63.5983 36.5808 63.6323 36.4193C63.6664 36.2578 63.6835 36.1643 63.6835 36.1643L63.8966 36.3768C64.0865 36.5651 64.2658 36.7637 64.4337 36.9718C64.9626 37.6178 65.4199 38.3189 65.7977 39.0629C66.214 39.9016 66.4382 40.8219 66.4542 41.7575C66.4521 41.9784 66.4235 42.1981 66.3689 42.4121C66.3208 42.6206 66.2493 42.8231 66.1558 43.0156Z" fill="#FCDABF"/>
<path d="M73.2145 35.2972C73.0951 35.5228 72.9583 35.7388 72.8053 35.9432C72.651 36.1418 72.483 36.3293 72.3023 36.5043C71.976 36.8469 71.577 37.1126 71.1345 37.2817C70.692 37.4508 70.2172 37.5192 69.7447 37.4818C69.5756 37.0555 69.5141 36.5943 69.5657 36.1388C69.5918 35.9218 69.6403 35.7082 69.7106 35.5012C69.7653 35.2864 69.8366 35.076 69.9238 34.8721C70.1291 34.442 70.3837 34.0369 70.6825 33.6651L71.1429 33.0871C71.2963 32.8916 71.4668 32.7046 71.6288 32.5176C72.3023 31.7865 73.0354 31.1065 73.5555 30.6049C74.0755 30.1034 74.4591 29.7719 74.4591 29.7719C74.4591 29.7719 74.4591 30.2819 74.4591 31.047C74.4194 31.4863 74.3568 31.9232 74.2716 32.356C74.2204 32.5941 74.1693 32.8406 74.1096 33.0871C74.0544 33.3406 73.9832 33.5905 73.8965 33.8351C73.7032 34.3376 73.4754 34.8261 73.2145 35.2972Z" fill="#FCDABF"/>
<path d="M67.2894 36.9293C66.4162 36.6373 65.6836 36.0311 65.2348 35.2292C65.1257 35.0443 65.0317 34.851 64.9535 34.6511C64.8559 34.4554 64.7706 34.2538 64.6977 34.0477C64.5635 33.6511 64.4609 33.2446 64.3908 32.8321C64.3141 32.4325 64.2289 32.0415 64.1863 31.6845C64.1863 31.4975 64.1863 31.3275 64.1351 31.166C64.084 31.0044 64.1351 30.8515 64.1351 30.7069C64.0881 30.3972 64.0597 30.085 64.0498 29.7719C64.0498 29.7719 64.4249 29.9844 64.962 30.3669L65.3968 30.6899C65.5502 30.8174 65.7037 30.945 65.8571 31.0895C66.1901 31.3866 66.5007 31.7076 66.7864 32.05C66.9313 32.2285 67.0762 32.4155 67.2127 32.6111L67.4002 32.9086L67.5622 33.2231C67.7653 33.6299 67.9143 34.0614 68.0055 34.5067C68.053 34.7216 68.0759 34.9412 68.0737 35.1612C68.0611 35.3738 68.0268 35.5846 67.9714 35.7902C67.8489 36.2232 67.6135 36.6162 67.2894 36.9293Z" fill="#FCDABF"/>
<path d="M70.8355 24.6716C71.0657 24.2296 71.3129 23.8216 71.5516 23.4051L72.2081 22.3425C72.5917 21.722 72.873 21.3225 72.873 21.3225C72.873 21.3225 73.018 21.807 73.1714 22.555C73.2226 22.9375 73.2822 23.4051 73.3164 23.8726C73.3164 24.1106 73.3164 24.3656 73.3164 24.6207C73.3164 24.8756 73.3164 25.1392 73.3164 25.4027C73.2748 25.9302 73.1893 26.4534 73.0606 26.9668C72.9264 27.4592 72.7257 27.931 72.4638 28.3694C72.2284 28.7788 71.9013 29.1285 71.5079 29.391C71.1145 29.6535 70.6656 29.8217 70.1962 29.8824C70.0685 29.689 69.9654 29.4806 69.8892 29.2619C69.8087 29.0564 69.7515 28.8425 69.7187 28.6243C69.6533 28.1883 69.6736 27.7437 69.7784 27.3153C69.876 26.8558 70.0158 26.4062 70.1962 25.9722C70.3837 25.5217 70.6139 25.0627 70.8355 24.6716Z" fill="#FCDABF"/>
<path d="M65.3199 28.5138C65.0182 28.219 64.7547 27.8878 64.5355 27.5278C64.2961 27.1902 64.0878 26.8317 63.9132 26.4567C63.8194 26.2782 63.7512 26.0997 63.666 25.9297L63.4443 25.4197C63.3079 25.0881 63.2056 24.7821 63.1118 24.5186C62.9157 24.0001 62.822 23.6686 62.822 23.6686C63.1772 23.7603 63.5273 23.8709 63.8706 24.0001C64.6381 24.2877 65.3635 24.6765 66.0274 25.1562C66.2214 25.2885 66.4065 25.4333 66.5816 25.5897C66.752 25.7455 66.9142 25.91 67.0675 26.0827C67.3734 26.4245 67.6289 26.808 67.8263 27.2217C68.0008 27.6123 68.0908 28.0352 68.0905 28.4628C68.0963 28.6757 68.0676 28.8882 68.0053 29.0918C67.9352 29.31 67.8378 29.5185 67.7154 29.7124C66.8007 29.6051 65.9528 29.1809 65.3199 28.5138Z" fill="#FCDABF"/>
<path d="M68.3128 21.9346C68.1796 21.7616 68.068 21.5732 67.9802 21.3735C67.8961 21.1768 67.8332 20.9716 67.7927 20.7615C67.7927 20.549 67.7331 20.328 67.7074 20.1069C67.6799 19.6437 67.7057 19.1788 67.7842 18.7214C67.8491 18.2317 67.9431 17.7463 68.0655 17.2678C68.3128 16.2987 68.577 15.3892 68.8242 14.7176C69.0715 14.0461 69.2249 13.5361 69.2249 13.5361C69.2249 13.5361 69.2931 13.6466 69.3954 13.8336C69.4977 14.0206 69.6342 14.3096 69.7961 14.6837C70.1821 15.5377 70.4682 16.4334 70.6487 17.3528C70.7333 17.8616 70.7817 18.3757 70.7936 18.8914C70.7906 19.1474 70.7707 19.403 70.7339 19.6564C70.6939 19.9002 70.6398 20.1415 70.5719 20.379C70.4481 20.8318 70.227 21.2523 69.924 21.6115C69.6141 21.9862 69.2157 22.2783 68.7645 22.4616C68.5906 22.3072 68.4386 22.1299 68.3128 21.9346Z" fill="#FCDABF"/>
<path d="M60.2305 18.2454C60.1367 18.1093 60.0941 18.0329 60.0941 18.0329H60.3925C60.5971 18.0329 60.8614 18.0329 61.1853 18.1009C61.5093 18.1689 61.8929 18.2029 62.3021 18.2964C62.5067 18.3389 62.7199 18.3984 62.933 18.4579C63.1461 18.5174 63.3507 18.6024 63.5638 18.6874C64 18.8524 64.4172 19.0632 64.8085 19.3164C65.1822 19.5547 65.5232 19.8405 65.823 20.1665C65.9609 20.3302 66.0783 20.51 66.1726 20.702C66.2649 20.8901 66.3391 21.0865 66.3942 21.2885C66.4524 21.4931 66.4811 21.7049 66.4795 21.9176C66.4608 22.1453 66.418 22.3704 66.3516 22.5891C65.887 22.6792 65.4094 22.6792 64.9449 22.5891C64.5209 22.4922 64.1132 22.3347 63.7344 22.1216C63.5553 22.0111 63.3763 21.9006 63.2058 21.7731L62.9671 21.5776L62.7199 21.3736C62.4117 21.1151 62.1265 20.8307 61.8673 20.5235C61.6114 20.255 61.3722 19.9711 61.1512 19.6734L60.9978 19.4524L60.8528 19.2569C60.7505 19.1209 60.6653 18.9934 60.5886 18.8829C60.5118 18.7724 60.3072 18.3899 60.2305 18.2454Z" fill="#FCDABF"/>
<path d="M65.5333 15.6781C65.1304 15.4819 64.7821 15.19 64.5188 14.8281C64.255 14.4834 64.061 14.0907 63.9477 13.672C63.4839 11.8864 63.6066 9.98913 63.7686 8.17223C63.8454 7.46669 63.9221 6.99066 63.9221 6.99066C64.267 7.25817 64.5281 7.5687 64.7831 7.92571C65.0416 8.26333 65.2807 8.61521 65.4993 8.97976C65.7538 9.40441 65.9816 9.84444 66.1813 10.2973C66.3839 10.7703 66.5465 11.2594 66.6672 11.7595C66.7683 12.2456 66.8084 12.7425 66.7866 13.2385C66.7746 13.7129 66.6558 14.1785 66.4389 14.6008C66.2219 15.0231 65.9124 15.3913 65.5333 15.6781Z" fill="#FCDABF"/>
<path d="M58.3724 15.168C58.0399 14.9214 57.733 14.6834 57.4602 14.4454C57.1874 14.2074 56.9317 13.9779 56.7356 13.7824C56.5395 13.5869 56.3605 13.4169 56.2496 13.2979L56.0707 13.1109C56.4313 13.0383 56.7955 12.9844 57.1618 12.9493C57.5273 12.9137 57.8945 12.8995 58.2616 12.9069C58.707 12.9037 59.1519 12.9379 59.5915 13.0089C60.5101 13.1152 61.3883 13.4451 62.1491 13.9694C62.493 14.2281 62.7827 14.5515 63.0016 14.9214C63.1945 15.3089 63.2855 15.7389 63.2659 16.171C62.4245 16.5339 61.4802 16.5821 60.606 16.307C60.1961 16.1885 59.8013 16.0231 59.4295 15.814C59.0614 15.6255 58.708 15.4095 58.3724 15.168Z" fill="#FCDABF"/>
<path d="M61.0945 11.2953C60.593 11.2953 59.8103 11.3412 59.1735 10.901C59.0008 10.7747 58.8357 10.6385 58.6791 10.4929C58.515 10.3478 58.3612 10.1916 58.2187 10.0254C57.9108 9.69379 57.626 9.34161 57.3662 8.97135C56.8717 8.24035 56.4454 7.48378 56.1386 6.91426C55.9851 6.63372 55.8779 6.38734 55.7927 6.21736L55.735 6.07215L55.7038 5.9707L56.101 5.99855C56.3653 6.03338 56.5199 6.05661 56.778 6.12373C57.5924 6.32986 58.3773 6.63836 59.1138 7.04177C59.9647 7.48078 60.7005 8.11253 61.2621 8.88635C61.5228 9.25402 61.6975 9.67515 61.7737 10.1189C61.8585 10.491 61.8561 10.8645 61.7737 11.2495" fill="#FCDABF"/>
</g>
<defs>
<clipPath id="clip0_14878_4441">
<rect width="73.603" height="68" fill="white" transform="translate(0.855469)"/>
</clipPath>
</defs>
</svg>
