<svg width="75" height="68" viewBox="0 0 75 68" fill="none" xmlns="http://www.w3.org/2000/svg">
<g clip-path="url(#clip0_14878_4433)">
<path d="M24.8251 59.8978C24.4322 59.5907 23.9954 59.3442 23.5293 59.1665C23.0931 59.0132 22.636 58.9272 22.1737 58.9114C21.1723 58.9002 20.1741 59.026 19.207 59.2857C18.2181 59.5321 17.2718 59.8209 16.5728 60.0592C15.8737 60.297 15.4133 60.4757 15.4133 60.4757C15.4133 60.4757 15.8651 60.7309 16.5813 61.0369C17.478 61.4249 18.4161 61.7101 19.3775 61.8868C20.4641 62.0997 21.5843 62.0737 22.6597 61.8104C23.1553 61.7045 23.6151 61.4728 23.9945 61.1377C24.3739 60.8027 24.66 60.3754 24.8251 59.8978Z" fill="#FCDABF"/>
<path d="M21.8068 55.528C22.1746 56.411 22.7613 57.1861 23.5118 57.7809C23.8675 58.0569 24.2814 58.2489 24.7224 58.342C25.1769 58.4347 25.6488 58.3904 26.0778 58.2142C26.1074 57.3134 25.8638 56.4248 25.3788 55.6645C24.9156 54.9582 24.3397 54.3319 23.6738 53.8114C23.0953 53.347 22.4888 52.9182 21.8579 52.5276C21.3549 52.2129 21.0054 52.0347 21.0054 52.0347C21.0054 52.0347 21.0054 52.1452 21.0054 52.3408C21.0054 52.5363 21.0565 52.7996 21.1162 53.1397C21.2479 53.9611 21.4798 54.7632 21.8068 55.528Z" fill="#FCDABF"/>
<path d="M14.6966 57.8237C15.1784 57.8181 15.6525 57.7025 16.0825 57.486C16.5126 57.2691 16.8871 56.9575 17.1775 56.574C16.9507 56.1738 16.6449 55.8234 16.2786 55.5443C15.9123 55.2653 15.493 55.0631 15.0462 54.9501C14.0814 54.6929 13.0867 54.5641 12.0879 54.5676C11.0734 54.5676 10.0589 54.5676 9.30021 54.5676H8.02993C8.02993 54.5676 8.12373 54.6781 8.29423 54.8482C8.46472 55.0183 8.72901 55.248 9.05298 55.5112C9.83261 56.1519 10.6923 56.6891 11.6105 57.1092C12.5699 57.5823 13.6263 57.8267 14.6966 57.8237Z" fill="#FCDABF"/>
<path d="M16.6237 53.9387C16.8881 54.3013 17.238 54.5936 17.6424 54.7891C18.0468 54.9852 18.4934 55.0784 18.9426 55.0611C19.2973 54.2071 19.3186 53.2518 19.0022 52.3835C18.6995 51.5856 18.2738 50.8401 17.7405 50.1735C17.2546 49.5105 16.7601 48.9406 16.4021 48.5414C16.2231 48.3285 16.0696 48.1671 15.9673 48.0566L15.8053 47.8865C15.8053 47.8865 15.8053 47.9889 15.7201 48.1671C15.6558 48.4222 15.6045 48.6804 15.5666 48.9406C15.4411 49.7549 15.4411 50.5834 15.5666 51.3972C15.7002 52.3194 16.0637 53.1932 16.6237 53.9387Z" fill="#FCDABF"/>
<path d="M4.46653 46.858C3.76746 46.637 3.30711 46.5095 3.30711 46.5095C3.30711 46.5095 3.34974 46.6285 3.44354 46.824C3.53729 47.0196 3.68221 47.2831 3.86126 47.6061C4.04025 47.9293 4.26192 48.3031 4.51771 48.6942C4.64558 48.8897 4.78195 49.0852 4.92688 49.2889L5.03774 49.4422L5.18266 49.6291L5.48102 50.0034C6.21747 50.9287 7.19733 51.6324 8.31138 52.0347C8.77274 52.2043 9.26924 52.2567 9.75597 52.187C10.2427 52.1172 10.7044 51.9278 11.0991 51.6355C10.8715 50.727 10.3238 49.9306 9.55604 49.3913C9.37705 49.2467 9.17244 49.1107 8.96783 48.9661L8.31994 48.5582L7.62937 48.1584C7.41625 48.0398 7.19458 47.9293 6.97292 47.8269C6.16018 47.4484 5.32286 47.1247 4.46653 46.858Z" fill="#FCDABF"/>
<path d="M11.3383 48.6091C11.4541 49.0389 11.6838 49.43 12.0033 49.7411C12.3228 50.0522 12.7203 50.2717 13.1542 50.3771C13.7168 49.6652 14.0364 48.7924 14.0664 47.8865C14.0889 47.1324 14.0375 46.3779 13.9129 45.6339C13.8616 45.2572 13.7818 44.8849 13.6742 44.5203C13.5633 44.1462 13.4525 43.8062 13.3417 43.5257C13.2309 43.2452 13.1371 43.0072 13.0689 42.8457L12.9751 42.5907L12.7961 42.8457C12.6853 43.0157 12.5489 43.2537 12.3954 43.5512C11.9992 44.3073 11.6821 45.102 11.4491 45.9228C11.3894 46.1524 11.3298 46.3904 11.2786 46.6284C11.2343 46.8531 11.203 47.0801 11.1848 47.3084C11.1635 47.5346 11.1635 47.7622 11.1848 47.9883C11.2164 48.1997 11.2677 48.4074 11.3383 48.6091Z" fill="#FCDABF"/>
<path d="M3.3923 43.3725C3.55908 43.5657 3.74158 43.7448 3.93794 43.908C4.12254 44.0673 4.31921 44.2123 4.52616 44.3415C4.91277 44.623 5.35824 44.8136 5.82923 44.899C6.30022 44.9844 6.78444 44.9624 7.24571 44.8346C7.32642 44.3809 7.29719 43.9146 7.16046 43.4745C7.09727 43.2661 7.00851 43.0662 6.89617 42.8795C6.785 42.6855 6.66259 42.4982 6.52957 42.3184C5.91855 41.5528 5.18037 40.8972 4.34711 40.3803C3.61341 39.8639 2.85058 39.39 2.0624 38.9607L0.988223 38.3827C0.988223 38.3827 0.988223 38.5102 1.05641 38.7227C1.12465 38.9353 1.20134 39.2328 1.3292 39.5728C1.60302 40.468 1.98973 41.3249 2.48012 42.1229C2.75266 42.5614 3.05759 42.9791 3.3923 43.3725Z" fill="#FCDABF"/>
<path d="M8.72916 43.0156C8.92048 43.4185 9.21446 43.7644 9.58167 44.0187C10.4009 43.5609 11.0116 42.8059 11.2867 41.9106C11.3547 41.7018 11.4088 41.4888 11.4487 41.273L11.4998 40.95C11.4998 40.848 11.4998 40.7375 11.551 40.627C11.6018 40.1926 11.6189 39.7549 11.6021 39.3179C11.5736 38.5778 11.5024 37.8398 11.389 37.1078C11.3379 36.8188 11.2867 36.5808 11.2526 36.4193C11.2185 36.2578 11.2014 36.1643 11.2014 36.1643L10.9883 36.3768C10.7984 36.5651 10.6191 36.7637 10.4512 36.9718C9.92234 37.6178 9.465 38.3189 9.0872 39.0629C8.67091 39.9016 8.44669 40.8219 8.43075 41.7575C8.43284 41.9784 8.46146 42.1981 8.516 42.4121C8.56417 42.6206 8.63567 42.8231 8.72916 43.0156Z" fill="#FCDABF"/>
<path d="M1.67044 35.2972C1.78981 35.5228 1.92664 35.7388 2.07966 35.9432C2.23391 36.1418 2.40195 36.3293 2.58263 36.5043C2.90895 36.8469 3.30793 37.1126 3.75045 37.2817C4.19297 37.4508 4.66778 37.5192 5.14019 37.4818C5.30936 37.0555 5.37087 36.5943 5.31924 36.1388C5.29311 35.9218 5.24459 35.7082 5.17431 35.5012C5.11967 35.2864 5.04838 35.076 4.96115 34.8721C4.75582 34.442 4.50121 34.0369 4.20244 33.6651L3.74205 33.0871C3.58861 32.8916 3.41813 32.7046 3.25614 32.5176C2.58263 31.7865 1.84949 31.1065 1.32946 30.6049C0.809436 30.1034 0.425781 29.7719 0.425781 29.7719C0.425781 29.7719 0.425781 30.2819 0.425781 31.047C0.465552 31.4863 0.528136 31.9232 0.613331 32.356C0.664509 32.5941 0.715635 32.8406 0.775317 33.0871C0.830518 33.3406 0.901709 33.5905 0.988431 33.8351C1.18168 34.3376 1.40956 34.8261 1.67044 35.2972Z" fill="#FCDABF"/>
<path d="M7.59552 36.9293C8.46875 36.6373 9.20133 36.0311 9.65011 35.2292C9.75919 35.0443 9.85324 34.851 9.93141 34.6511C10.029 34.4554 10.1144 34.2538 10.1872 34.0477C10.3214 33.6511 10.424 33.2446 10.4941 32.8321C10.5708 32.4325 10.656 32.0415 10.6987 31.6845C10.6987 31.4975 10.6987 31.3275 10.7498 31.166C10.801 31.0044 10.7498 30.8515 10.7498 30.7069C10.7968 30.3972 10.8253 30.085 10.8351 29.7719C10.8351 29.7719 10.46 29.9844 9.92291 30.3669L9.48813 30.6899C9.33469 30.8174 9.18121 30.945 9.02778 31.0895C8.69485 31.3866 8.38426 31.7076 8.09853 32.05C7.95361 32.2285 7.80868 32.4155 7.67226 32.6111L7.48471 32.9086L7.32272 33.2231C7.11964 33.6299 6.97059 34.0614 6.87944 34.5067C6.83193 34.7216 6.80906 34.9412 6.8112 35.1612C6.82383 35.3738 6.8581 35.5846 6.9135 35.7902C7.03608 36.2232 7.27139 36.6162 7.59552 36.9293Z" fill="#FCDABF"/>
<path d="M4.04939 24.6716C3.81922 24.2296 3.57198 23.8216 3.33331 23.4051L2.67686 22.3425C2.2932 21.722 2.0119 21.3225 2.0119 21.3225C2.0119 21.3225 1.86698 21.807 1.7135 22.555C1.66237 22.9375 1.60269 23.4051 1.56857 23.8726C1.56857 24.1106 1.56857 24.3656 1.56857 24.6207C1.56857 24.8756 1.56857 25.1392 1.56857 25.4027C1.61012 25.9302 1.69567 26.4534 1.82435 26.9668C1.95849 27.4592 2.15923 27.931 2.42112 28.3694C2.65649 28.7788 2.98362 29.1285 3.37705 29.391C3.77043 29.6535 4.21937 29.8217 4.68878 29.8824C4.81644 29.689 4.91956 29.4806 4.99569 29.2619C5.07625 29.0564 5.13344 28.8425 5.16618 28.6243C5.23162 28.1883 5.21135 27.7437 5.10655 27.3153C5.00893 26.8558 4.8691 26.4062 4.68878 25.9722C4.50123 25.5217 4.27106 25.0627 4.04939 24.6716Z" fill="#FCDABF"/>
<path d="M9.56506 28.5138C9.86673 28.219 10.1302 27.8878 10.3494 27.5278C10.5888 27.1902 10.7971 26.8317 10.9717 26.4567C11.0655 26.2782 11.1337 26.0997 11.2189 25.9297L11.4406 25.4197C11.577 25.0881 11.6793 24.7821 11.7731 24.5186C11.9692 24.0001 12.0629 23.6686 12.0629 23.6686C11.7077 23.7603 11.3577 23.8709 11.0143 24.0001C10.2469 24.2877 9.52147 24.6765 8.85749 25.1562C8.66352 25.2885 8.47841 25.4333 8.30334 25.5897C8.1329 25.7455 7.97071 25.91 7.81743 26.0827C7.51149 26.4245 7.256 26.808 7.05868 27.2217C6.88411 27.6123 6.79408 28.0352 6.79439 28.4628C6.78858 28.6757 6.81735 28.8882 6.87963 29.0918C6.94975 29.31 7.04717 29.5185 7.16949 29.7124C8.08422 29.6051 8.93209 29.1809 9.56506 28.5138Z" fill="#FCDABF"/>
<path d="M6.57217 21.9346C6.70528 21.7616 6.81696 21.5732 6.9047 21.3735C6.98887 21.1768 7.05177 20.9716 7.09225 20.7615C7.09225 20.549 7.15188 20.328 7.17749 20.1069C7.20504 19.6437 7.17928 19.1788 7.10075 18.7214C7.03583 18.2317 6.94187 17.7463 6.8194 17.2678C6.57217 16.2987 6.30793 15.3892 6.0607 14.7176C5.81347 14.0461 5.65998 13.5361 5.65998 13.5361C5.65998 13.5361 5.5918 13.6466 5.4895 13.8336C5.38719 14.0206 5.25077 14.3096 5.08883 14.6837C4.70278 15.5377 4.41675 16.4334 4.23628 17.3528C4.15164 17.8616 4.10321 18.3757 4.09135 18.8914C4.0943 19.1474 4.11421 19.403 4.15103 19.6564C4.19101 19.9002 4.24509 20.1415 4.31302 20.379C4.43686 20.8318 4.65797 21.2523 4.96091 21.6115C5.27083 21.9862 5.66925 22.2783 6.12038 22.4616C6.29433 22.3072 6.44634 22.1299 6.57217 21.9346Z" fill="#FCDABF"/>
<path d="M14.6544 18.2454C14.7482 18.1093 14.7908 18.0329 14.7908 18.0329H14.4924C14.2878 18.0329 14.0235 18.0329 13.6996 18.1009C13.3757 18.1689 12.992 18.2029 12.5828 18.2964C12.3782 18.3389 12.1651 18.3984 11.9519 18.4579C11.7388 18.5174 11.5342 18.6024 11.3211 18.6874C10.885 18.8524 10.4677 19.0632 10.0764 19.3164C9.70272 19.5547 9.36169 19.8405 9.0619 20.1665C8.92401 20.3302 8.80663 20.51 8.71237 20.702C8.62 20.8901 8.5458 21.0865 8.49075 21.2885C8.43255 21.4931 8.40388 21.7049 8.40545 21.9176C8.42409 22.1453 8.46697 22.3704 8.53337 22.5891C8.99789 22.6792 9.4755 22.6792 9.94002 22.5891C10.364 22.4922 10.7718 22.3347 11.1506 22.1216C11.3296 22.0111 11.5087 21.9006 11.6792 21.7731L11.9178 21.5776L12.1651 21.3736C12.4732 21.1151 12.7584 20.8307 13.0176 20.5235C13.2735 20.255 13.5127 19.9711 13.7337 19.6734L13.8872 19.4524L14.0321 19.2569C14.1344 19.1209 14.2197 18.9934 14.2963 18.8829C14.3731 18.7724 14.5777 18.3899 14.6544 18.2454Z" fill="#FCDABF"/>
<path d="M9.35159 15.6781C9.75449 15.4819 10.1029 15.19 10.3661 14.8281C10.6299 14.4834 10.8239 14.0907 10.9372 13.672C11.4011 11.8864 11.2783 9.98913 11.1163 8.17223C11.0395 7.46669 10.9628 6.99066 10.9628 6.99066C10.6179 7.25817 10.3569 7.5687 10.1018 7.92571C9.84331 8.26333 9.60422 8.61521 9.38566 8.97976C9.13109 9.40441 8.90332 9.84444 8.70365 10.2973C8.50102 10.7703 8.33848 11.2594 8.21774 11.7595C8.11666 12.2456 8.07653 12.7425 8.09837 13.2385C8.11029 13.7129 8.22915 14.1785 8.44608 14.6008C8.66301 15.0231 8.97252 15.3913 9.35159 15.6781Z" fill="#FCDABF"/>
<path d="M16.5125 15.168C16.845 14.9214 17.1519 14.6834 17.4247 14.4454C17.6975 14.2074 17.9533 13.9779 18.1493 13.7824C18.3454 13.5869 18.5244 13.4169 18.6353 13.2979L18.8143 13.1109C18.4536 13.0383 18.0894 12.9844 17.7231 12.9493C17.3576 12.9137 16.9904 12.8995 16.6233 12.9069C16.1779 12.9037 15.7331 12.9379 15.2934 13.0089C14.3749 13.1152 13.4966 13.4451 12.7358 13.9694C12.3919 14.2281 12.1023 14.5515 11.8833 14.9214C11.6904 15.3089 11.5994 15.7389 11.619 16.171C12.4604 16.5339 13.4048 16.5821 14.2789 16.307C14.6888 16.1885 15.0836 16.0231 15.4554 15.814C15.8236 15.6255 16.177 15.4095 16.5125 15.168Z" fill="#FCDABF"/>
<path d="M13.7904 11.2953C14.2919 11.2953 15.0746 11.3412 15.7115 10.901C15.8841 10.7747 16.0492 10.6385 16.2059 10.4929C16.3699 10.3478 16.5237 10.1916 16.6663 10.0254C16.9741 9.69379 17.259 9.34161 17.5188 8.97135C18.0132 8.24035 18.4395 7.48378 18.7464 6.91426C18.8998 6.63372 19.007 6.38734 19.0923 6.21736L19.15 6.07215L19.1812 5.9707L18.7839 5.99855C18.5196 6.03338 18.365 6.05661 18.107 6.12373C17.2925 6.32986 16.5076 6.63836 15.7711 7.04177C14.9203 7.48078 14.1845 8.11253 13.6228 8.88635C13.3622 9.25402 13.1874 9.67515 13.1113 10.1189C13.0264 10.491 13.0288 10.8645 13.1113 11.2495" fill="#FCDABF"/>
<path d="M44.2266 32.75H42.2266C39.8066 32.75 38.4766 31.42 38.4766 29V27C38.4766 24.58 39.8066 23.25 42.2266 23.25H44.2266C46.6466 23.25 47.9766 24.58 47.9766 27V29C47.9766 31.42 46.6466 32.75 44.2266 32.75ZM42.2266 24.75C40.6466 24.75 39.9766 25.42 39.9766 27V29C39.9766 30.58 40.6466 31.25 42.2266 31.25H44.2266C45.8066 31.25 46.4766 30.58 46.4766 29V27C46.4766 25.42 45.8066 24.75 44.2266 24.75H42.2266Z" fill="#FCDABF"/>
<path d="M32.2266 44.75H30.2266C27.8066 44.75 26.4766 43.42 26.4766 41V39C26.4766 36.58 27.8066 35.25 30.2266 35.25H32.2266C34.6466 35.25 35.9766 36.58 35.9766 39V41C35.9766 43.42 34.6466 44.75 32.2266 44.75ZM30.2266 36.75C28.6466 36.75 27.9766 37.42 27.9766 39V41C27.9766 42.58 28.6466 43.25 30.2266 43.25H32.2266C33.8066 43.25 34.4766 42.58 34.4766 41V39C34.4766 37.42 33.8066 36.75 32.2266 36.75H30.2266Z" fill="#FCDABF"/>
<path d="M31.2266 32.75C28.6066 32.75 26.4766 30.62 26.4766 28C26.4766 25.38 28.6066 23.25 31.2266 23.25C33.8466 23.25 35.9766 25.38 35.9766 28C35.9766 30.62 33.8466 32.75 31.2266 32.75ZM31.2266 24.75C29.4366 24.75 27.9766 26.21 27.9766 28C27.9766 29.79 29.4366 31.25 31.2266 31.25C33.0166 31.25 34.4766 29.79 34.4766 28C34.4766 26.21 33.0166 24.75 31.2266 24.75Z" fill="#FCDABF"/>
<path d="M43.2266 44.75C40.6066 44.75 38.4766 42.62 38.4766 40C38.4766 37.38 40.6066 35.25 43.2266 35.25C45.8466 35.25 47.9766 37.38 47.9766 40C47.9766 42.62 45.8466 44.75 43.2266 44.75ZM43.2266 36.75C41.4366 36.75 39.9766 38.21 39.9766 40C39.9766 41.79 41.4366 43.25 43.2266 43.25C45.0166 43.25 46.4766 41.79 46.4766 40C46.4766 38.21 45.0166 36.75 43.2266 36.75Z" fill="#FCDABF"/>
<path d="M49.6301 59.8978C50.0231 59.5907 50.4598 59.3442 50.926 59.1665C51.3622 59.0132 51.8193 58.9272 52.2815 58.9114C53.2829 58.9002 54.2812 59.026 55.2482 59.2857C56.2372 59.5321 57.1835 59.8209 57.8825 60.0592C58.5816 60.297 59.042 60.4757 59.042 60.4757C59.042 60.4757 58.5901 60.7309 57.874 61.0369C56.9773 61.4249 56.0392 61.7101 55.0777 61.8868C53.9911 62.0997 52.871 62.0737 51.7955 61.8104C51.2999 61.7045 50.8401 61.4728 50.4607 61.1377C50.0813 60.8027 49.7952 60.3754 49.6301 59.8978Z" fill="#FCDABF"/>
<path d="M52.6485 55.528C52.2806 56.411 51.6939 57.1861 50.9435 57.7809C50.5878 58.0569 50.1738 58.2489 49.7329 58.342C49.2784 58.4347 48.8065 58.3904 48.3774 58.2142C48.3478 57.3134 48.5914 56.4248 49.0765 55.6645C49.5396 54.9582 50.1156 54.3319 50.7815 53.8114C51.36 53.347 51.9664 52.9182 52.5974 52.5276C53.1003 52.2129 53.4499 52.0347 53.4499 52.0347C53.4499 52.0347 53.4499 52.1452 53.4499 52.3408C53.4499 52.5363 53.3987 52.7996 53.3391 53.1397C53.2074 53.9611 52.9755 54.7632 52.6485 55.528Z" fill="#FCDABF"/>
<path d="M59.7586 57.8237C59.2769 57.8181 58.8028 57.7025 58.3727 57.486C57.9427 57.2691 57.5681 56.9575 57.2778 56.574C57.5045 56.1738 57.8103 55.8234 58.1766 55.5443C58.543 55.2653 58.9622 55.0631 59.4091 54.9501C60.3739 54.6929 61.3686 54.5641 62.3673 54.5676C63.3818 54.5676 64.3963 54.5676 65.155 54.5676H66.4253C66.4253 54.5676 66.3315 54.6781 66.161 54.8482C65.9905 55.0183 65.7262 55.248 65.4023 55.5112C64.6226 56.1519 63.7629 56.6891 62.8447 57.1092C61.8853 57.5823 60.8289 57.8267 59.7586 57.8237Z" fill="#FCDABF"/>
<path d="M57.8315 53.9387C57.5672 54.3013 57.2173 54.5936 56.8129 54.7891C56.4084 54.9852 55.9619 55.0784 55.5127 55.0611C55.1579 54.2071 55.1366 53.2518 55.453 52.3835C55.7558 51.5856 56.1815 50.8401 56.7147 50.1735C57.2006 49.5105 57.6951 48.9406 58.0531 48.5414C58.2322 48.3285 58.3857 48.1671 58.488 48.0566L58.6499 47.8865C58.6499 47.8865 58.6499 47.9889 58.7351 48.1671C58.7995 48.4222 58.8507 48.6804 58.8886 48.9406C59.0142 49.7549 59.0142 50.5834 58.8886 51.3972C58.7551 52.3194 58.3916 53.1932 57.8315 53.9387Z" fill="#FCDABF"/>
<path d="M69.9887 46.858C70.6878 46.637 71.1481 46.5095 71.1481 46.5095C71.1481 46.5095 71.1055 46.6285 71.0117 46.824C70.918 47.0196 70.773 47.2831 70.594 47.6061C70.415 47.9293 70.1933 48.3031 69.9375 48.6942C69.8097 48.8897 69.6733 49.0852 69.5284 49.2889L69.4175 49.4422L69.2726 49.6291L68.9742 50.0034C68.2378 50.9287 67.2579 51.6324 66.1439 52.0347C65.6825 52.2043 65.186 52.2567 64.6993 52.187C64.2125 52.1172 63.7509 51.9278 63.3561 51.6355C63.5838 50.727 64.1314 49.9306 64.8992 49.3913C65.0782 49.2467 65.2828 49.1107 65.4874 48.9661L66.1353 48.5582L66.8259 48.1584C67.039 48.0398 67.2607 47.9293 67.4823 47.8269C68.2951 47.4484 69.1324 47.1247 69.9887 46.858Z" fill="#FCDABF"/>
<path d="M63.1169 48.6091C63.0011 49.0389 62.7715 49.43 62.452 49.7411C62.1325 50.0522 61.735 50.2717 61.3011 50.3771C60.7384 49.6652 60.4188 48.7924 60.3889 47.8865C60.3664 47.1324 60.4177 46.3779 60.5424 45.6339C60.5937 45.2572 60.6735 44.8849 60.781 44.5203C60.8919 44.1462 61.0027 43.8062 61.1135 43.5257C61.2244 43.2452 61.3181 43.0072 61.3863 42.8457L61.4801 42.5907L61.6592 42.8457C61.77 43.0157 61.9064 43.2537 62.0598 43.5512C62.456 44.3073 62.7731 45.102 63.0061 45.9228C63.0658 46.1524 63.1255 46.3904 63.1766 46.6284C63.221 46.8531 63.2523 47.0801 63.2704 47.3084C63.2917 47.5346 63.2917 47.7622 63.2704 47.9883C63.2389 48.1997 63.1875 48.4074 63.1169 48.6091Z" fill="#FCDABF"/>
<path d="M71.0629 43.3725C70.8962 43.5657 70.7137 43.7448 70.5173 43.908C70.3327 44.0673 70.136 44.2123 69.9291 44.3415C69.5425 44.623 69.097 44.8136 68.626 44.899C68.155 44.9844 67.6708 44.9624 67.2095 44.8346C67.1288 44.3809 67.1581 43.9146 67.2948 43.4745C67.358 43.2661 67.4467 43.0662 67.5591 42.8795C67.6702 42.6855 67.7927 42.4982 67.9257 42.3184C68.5367 41.5528 69.2749 40.8972 70.1081 40.3803C70.8418 39.8639 71.6047 39.39 72.3928 38.9607L73.467 38.3827C73.467 38.3827 73.467 38.5102 73.3988 38.7227C73.3306 38.9353 73.2539 39.2328 73.126 39.5728C72.8522 40.468 72.4655 41.3249 71.9751 42.1229C71.7026 42.5614 71.3977 42.9791 71.0629 43.3725Z" fill="#FCDABF"/>
<path d="M65.7261 43.0156C65.5348 43.4185 65.2408 43.7644 64.8736 44.0187C64.0543 43.5609 63.4437 42.8059 63.1686 41.9106C63.1006 41.7018 63.0465 41.4888 63.0066 41.273L62.9554 40.95C62.9554 40.848 62.9554 40.7375 62.9043 40.627C62.8535 40.1926 62.8363 39.7549 62.8531 39.3179C62.8816 38.5778 62.9528 37.8398 63.0663 37.1078C63.1174 36.8188 63.1686 36.5808 63.2026 36.4193C63.2368 36.2578 63.2538 36.1643 63.2538 36.1643L63.4669 36.3768C63.6568 36.5651 63.8361 36.7637 64.004 36.9718C64.5329 37.6178 64.9902 38.3189 65.368 39.0629C65.7843 39.9016 66.0085 40.8219 66.0245 41.7575C66.0224 41.9784 65.9938 42.1981 65.9392 42.4121C65.8911 42.6206 65.8196 42.8231 65.7261 43.0156Z" fill="#FCDABF"/>
<path d="M72.7848 35.2972C72.6654 35.5228 72.5286 35.7388 72.3756 35.9432C72.2213 36.1418 72.0533 36.3293 71.8726 36.5043C71.5463 36.8469 71.1473 37.1126 70.7048 37.2817C70.2623 37.4508 69.7875 37.5192 69.3151 37.4818C69.1459 37.0555 69.0844 36.5943 69.136 36.1388C69.1621 35.9218 69.2107 35.7082 69.2809 35.5012C69.3356 35.2864 69.4069 35.076 69.4941 34.8721C69.6994 34.442 69.954 34.0369 70.2528 33.6651L70.7132 33.0871C70.8666 32.8916 71.0371 32.7046 71.1991 32.5176C71.8726 31.7865 72.6058 31.1065 73.1258 30.6049C73.6458 30.1034 74.0295 29.7719 74.0295 29.7719C74.0295 29.7719 74.0295 30.2819 74.0295 31.047C73.9897 31.4863 73.9271 31.9232 73.8419 32.356C73.7907 32.5941 73.7396 32.8406 73.6799 33.0871C73.6247 33.3406 73.5535 33.5905 73.4668 33.8351C73.2736 34.3376 73.0457 34.8261 72.7848 35.2972Z" fill="#FCDABF"/>
<path d="M66.8597 36.9293C65.9865 36.6373 65.2539 36.0311 64.8051 35.2292C64.6961 35.0443 64.602 34.851 64.5238 34.6511C64.4263 34.4554 64.3409 34.2538 64.268 34.0477C64.1339 33.6511 64.0313 33.2446 63.9611 32.8321C63.8844 32.4325 63.7992 32.0415 63.7566 31.6845C63.7566 31.4975 63.7566 31.3275 63.7054 31.166C63.6543 31.0044 63.7054 30.8515 63.7054 30.7069C63.6584 30.3972 63.63 30.085 63.6201 29.7719C63.6201 29.7719 63.9952 29.9844 64.5323 30.3669L64.9671 30.6899C65.1205 30.8174 65.274 30.945 65.4275 31.0895C65.7604 31.3866 66.071 31.7076 66.3567 32.05C66.5016 32.2285 66.6466 32.4155 66.783 32.6111L66.9705 32.9086L67.1325 33.2231C67.3356 33.6299 67.4847 34.0614 67.5758 34.5067C67.6233 34.7216 67.6462 34.9412 67.644 35.1612C67.6314 35.3738 67.5971 35.5846 67.5417 35.7902C67.4192 36.2232 67.1839 36.6162 66.8597 36.9293Z" fill="#FCDABF"/>
<path d="M70.4059 24.6716C70.636 24.2296 70.8833 23.8216 71.1219 23.4051L71.7784 22.3425C72.162 21.722 72.4433 21.3225 72.4433 21.3225C72.4433 21.3225 72.5883 21.807 72.7417 22.555C72.7929 22.9375 72.8526 23.4051 72.8867 23.8726C72.8867 24.1106 72.8867 24.3656 72.8867 24.6207C72.8867 24.8756 72.8867 25.1392 72.8867 25.4027C72.8451 25.9302 72.7596 26.4534 72.6309 26.9668C72.4968 27.4592 72.296 27.931 72.0341 28.3694C71.7988 28.7788 71.4716 29.1285 71.0782 29.391C70.6848 29.6535 70.2359 29.8217 69.7665 29.8824C69.6388 29.689 69.5357 29.4806 69.4596 29.2619C69.379 29.0564 69.3218 28.8425 69.2891 28.6243C69.2236 28.1883 69.2439 27.7437 69.3487 27.3153C69.4463 26.8558 69.5861 26.4062 69.7665 25.9722C69.954 25.5217 70.1842 25.0627 70.4059 24.6716Z" fill="#FCDABF"/>
<path d="M64.8902 28.5138C64.5885 28.219 64.325 27.8878 64.1059 27.5278C63.8664 27.1902 63.6581 26.8317 63.4835 26.4567C63.3897 26.2782 63.3215 26.0997 63.2363 25.9297L63.0146 25.4197C62.8782 25.0881 62.7759 24.7821 62.6822 24.5186C62.486 24.0001 62.3923 23.6686 62.3923 23.6686C62.7475 23.7603 63.0976 23.8709 63.4409 24.0001C64.2084 24.2877 64.9338 24.6765 65.5978 25.1562C65.7917 25.2885 65.9768 25.4333 66.1519 25.5897C66.3223 25.7455 66.4845 25.91 66.6378 26.0827C66.9438 26.4245 67.1992 26.808 67.3966 27.2217C67.5711 27.6123 67.6612 28.0352 67.6609 28.4628C67.6667 28.6757 67.6379 28.8882 67.5756 29.0918C67.5055 29.31 67.4081 29.5185 67.2858 29.7124C66.371 29.6051 65.5232 29.1809 64.8902 28.5138Z" fill="#FCDABF"/>
<path d="M67.8831 21.9346C67.75 21.7616 67.6383 21.5732 67.5505 21.3735C67.4664 21.1768 67.4035 20.9716 67.363 20.7615C67.363 20.549 67.3034 20.328 67.2778 20.1069C67.2502 19.6437 67.276 19.1788 67.3545 18.7214C67.4194 18.2317 67.5134 17.7463 67.6358 17.2678C67.8831 16.2987 68.1473 15.3892 68.3945 14.7176C68.6418 14.0461 68.7953 13.5361 68.7953 13.5361C68.7953 13.5361 68.8634 13.6466 68.9657 13.8336C69.0681 14.0206 69.2045 14.3096 69.3664 14.6837C69.7525 15.5377 70.0385 16.4334 70.219 17.3528C70.3036 17.8616 70.352 18.3757 70.3639 18.8914C70.3609 19.1474 70.341 19.403 70.3042 19.6564C70.2642 19.9002 70.2102 20.1415 70.1422 20.379C70.0184 20.8318 69.7973 21.2523 69.4943 21.6115C69.1844 21.9862 68.786 22.2783 68.3349 22.4616C68.1609 22.3072 68.0089 22.1299 67.8831 21.9346Z" fill="#FCDABF"/>
<path d="M59.8008 18.2454C59.7071 18.1093 59.6644 18.0329 59.6644 18.0329H59.9628C60.1674 18.0329 60.4317 18.0329 60.7556 18.1009C61.0796 18.1689 61.4632 18.2029 61.8724 18.2964C62.077 18.3389 62.2902 18.3984 62.5033 18.4579C62.7164 18.5174 62.921 18.6024 63.1341 18.6874C63.5703 18.8524 63.9876 19.0632 64.3788 19.3164C64.7525 19.5547 65.0936 19.8405 65.3933 20.1665C65.5312 20.3302 65.6486 20.51 65.7429 20.702C65.8352 20.8901 65.9094 21.0865 65.9645 21.2885C66.0227 21.4931 66.0514 21.7049 66.0498 21.9176C66.0311 22.1453 65.9883 22.3704 65.9219 22.5891C65.4573 22.6792 64.9797 22.6792 64.5152 22.5891C64.0912 22.4922 63.6835 22.3347 63.3047 22.1216C63.1256 22.0111 62.9466 21.9006 62.7761 21.7731L62.5374 21.5776L62.2902 21.3736C61.982 21.1151 61.6968 20.8307 61.4376 20.5235C61.1817 20.255 60.9426 19.9711 60.7215 19.6734L60.5681 19.4524L60.4231 19.2569C60.3208 19.1209 60.2356 18.9934 60.1589 18.8829C60.0822 18.7724 59.8775 18.3899 59.8008 18.2454Z" fill="#FCDABF"/>
<path d="M65.1037 15.6781C64.7007 15.4819 64.3524 15.19 64.0892 14.8281C63.8253 14.4834 63.6313 14.0907 63.518 13.672C63.0542 11.8864 63.1769 9.98913 63.339 8.17223C63.4157 7.46669 63.4924 6.99066 63.4924 6.99066C63.8373 7.25817 64.0984 7.5687 64.3534 7.92571C64.6119 8.26333 64.851 8.61521 65.0696 8.97976C65.3241 9.40441 65.5519 9.84444 65.7516 10.2973C65.9542 10.7703 66.1168 11.2594 66.2375 11.7595C66.3386 12.2456 66.3787 12.7425 66.3569 13.2385C66.345 13.7129 66.2261 14.1785 66.0092 14.6008C65.7922 15.0231 65.4827 15.3913 65.1037 15.6781Z" fill="#FCDABF"/>
<path d="M57.9427 15.168C57.6103 14.9214 57.3033 14.6834 57.0306 14.4454C56.7578 14.2074 56.502 13.9779 56.3059 13.7824C56.1098 13.5869 55.9308 13.4169 55.82 13.2979L55.641 13.1109C56.0017 13.0383 56.3659 12.9844 56.7321 12.9493C57.0976 12.9137 57.4648 12.8995 57.8319 12.9069C58.2773 12.9037 58.7222 12.9379 59.1618 13.0089C60.0804 13.1152 60.9587 13.4451 61.7194 13.9694C62.0633 14.2281 62.353 14.5515 62.5719 14.9214C62.7649 15.3089 62.8558 15.7389 62.8362 16.171C61.9948 16.5339 61.0505 16.5821 60.1763 16.307C59.7664 16.1885 59.3716 16.0231 58.9999 15.814C58.6317 15.6255 58.2783 15.4095 57.9427 15.168Z" fill="#FCDABF"/>
<path d="M60.6648 11.2953C60.1633 11.2953 59.3806 11.3412 58.7438 10.901C58.5711 10.7747 58.406 10.6385 58.2494 10.4929C58.0854 10.3478 57.9315 10.1916 57.789 10.0254C57.4811 9.69379 57.1963 9.34161 56.9365 8.97135C56.442 8.24035 56.0157 7.48378 55.7089 6.91426C55.5554 6.63372 55.4482 6.38734 55.363 6.21736L55.3053 6.07215L55.2741 5.9707L55.6713 5.99855C55.9356 6.03338 56.0902 6.05661 56.3483 6.12373C57.1627 6.32986 57.9476 6.63836 58.6842 7.04177C59.535 7.48078 60.2708 8.11253 60.8324 8.88635C61.0931 9.25402 61.2678 9.67515 61.344 10.1189C61.4288 10.491 61.4265 10.8645 61.344 11.2495" fill="#FCDABF"/>
</g>
<defs>
<clipPath id="clip0_14878_4433">
<rect width="73.603" height="68" fill="white" transform="translate(0.425781)"/>
</clipPath>
</defs>
</svg>
